<svg xmlns="http://www.w3.org/2000/svg" width="129.854" height="131.937" viewBox="0 0 129.854 131.937"><g transform="translate(146.944 577.467)"><path d="M-116.653-564.571c.046.1.088.2.127.286a6.508,6.508,0,0,1,.36,1.011,2.567,2.567,0,0,0,.214.625.381.381,0,0,0,.257.215.454.454,0,0,0,.3-.065c.1-.055.121-.18.131-.365.006-.149.007-.314,0-.494s-.01-.347-.015-.507a1.074,1.074,0,0,1,.009-.283,1.284,1.284,0,0,1,.291-.513,1.909,1.909,0,0,1,.45-.339l.732-.4a3.416,3.416,0,0,1,.531-.241.541.541,0,0,1,.2-.044,2.082,2.082,0,0,1,.123.189c.062.1.1.173.123.211l3.133,5.709a3.891,3.891,0,0,1,.259.554.827.827,0,0,1,.056.383.644.644,0,0,1-.156.328,2.276,2.276,0,0,1-.471.4.588.588,0,0,1-.119.077.9.9,0,0,0-.243.2.342.342,0,0,0-.021.4.289.289,0,0,0,.254.17.319.319,0,0,0,.1-.02,2.175,2.175,0,0,0,.215-.1c.284-.155.565-.323.835-.5s.542-.334.82-.488c.307-.168.626-.33.946-.481s.649-.317.961-.488a2.024,2.024,0,0,0,.246-.152c.081-.06.148-.183.014-.428-.042-.077-.173-.24-.476-.116l-.5.2a1.617,1.617,0,0,1-.528.118.507.507,0,0,1-.419-.228,2.6,2.6,0,0,1-.234-.337c-.073-.123-.143-.245-.211-.368-.362-.7-.749-1.4-1.148-2.08s-.78-1.367-1.143-2.066l-.766-1.453a2.307,2.307,0,0,1-.183-.4c-.031-.105-.022-.146,0-.177.053-.024.108-.052.167-.084s.144-.081.238-.14.194-.115.31-.177c.153-.084.322-.168.5-.252s.35-.152.52-.212a1.527,1.527,0,0,1,.435-.086.434.434,0,0,1,.262.072.867.867,0,0,1,.228.3c.065.135.121.263.172.381a1.218,1.218,0,0,0,.184.318.305.305,0,0,0,.4.053c.124-.068.255-.219.182-.554a4.342,4.342,0,0,0-.227-.7c-.1-.252-.211-.51-.329-.77a2.5,2.5,0,0,1-.2-.62.607.607,0,0,0-.206-.364.4.4,0,0,0-.5-.034.281.281,0,0,0-.14.253c0,.065-.01.139-.023.222a1.146,1.146,0,0,1-.061.239.392.392,0,0,1-.128.169,3.536,3.536,0,0,1-.332.219c-.118.071-.235.136-.352.2q-.567.311-1.088.612c-.345.2-.7.4-1.082.609q-.706.387-1.457.777t-1.475.74a.472.472,0,0,1-.246.057.694.694,0,0,1-.2-.049c-.064-.027-.119-.054-.167-.077a.269.269,0,0,0-.263,0,.514.514,0,0,0-.261.285.674.674,0,0,0-.023.332,1.285,1.285,0,0,0,.1.33m10.544-5.2a.583.583,0,0,0,.251.025,2.022,2.022,0,0,0,.22-.037c.069-.018.126-.033.17-.047l.142-.045a.409.409,0,0,1,.325.008.68.68,0,0,1,.247.234,1.623,1.623,0,0,1,.183.377c.053.152.1.288.134.4.228.727.447,1.454.649,2.163s.421,1.434.65,2.169l.15.474c.024.08.052.158.079.236s.062.157.1.233a3.214,3.214,0,0,0,.795,1.166,2.624,2.624,0,0,0,1.059.577,3.294,3.294,0,0,0,.858.111c.124,0,.251-.007.378-.02a6.541,6.541,0,0,0,1.312-.274,8.294,8.294,0,0,0,1.122-.444,5.6,5.6,0,0,0,1.055-.657,2.371,2.371,0,0,0,.779-1.054,3.57,3.57,0,0,0,.194-1.215,5.527,5.527,0,0,0-.174-1.27c-.109-.424-.223-.827-.34-1.2-.072-.234-.148-.464-.224-.7s-.15-.458-.222-.688q-.122-.386-.289-.9t-.309-.986c-.093-.315-.165-.594-.211-.829a1.009,1.009,0,0,1-.031-.322.674.674,0,0,1,.183-.108c.123-.058.25-.124.38-.2a1.857,1.857,0,0,0,.35-.254.388.388,0,0,0,.123-.414.36.36,0,0,0-.371-.237h-.026l-.023.007c-.234.072-.464.152-.694.239s-.451.161-.68.234-.444.13-.672.182-.467.118-.693.189a.9.9,0,0,0-.22.1.281.281,0,0,0-.1.345.414.414,0,0,0,.306.308,1.1,1.1,0,0,0,.376.012c.125-.015.251-.033.378-.053a.419.419,0,0,1,.253.024c.038.017.113.074.2.262a4.692,4.692,0,0,1,.227.593c.071.229.141.467.211.717s.135.479.2.676l.861,2.749a3.677,3.677,0,0,1,.15.746,4.5,4.5,0,0,1,.023,1.16,2.1,2.1,0,0,1-.285.835,1.9,1.9,0,0,1-.623.608,4.562,4.562,0,0,1-1.054.459,4.046,4.046,0,0,1-1,.191,1.757,1.757,0,0,1-.838-.156,2.021,2.021,0,0,1-.727-.6,4.585,4.585,0,0,1-.639-1.195q-.149-.386-.279-.779c-.087-.263-.172-.527-.255-.793l-.739-2.364c-.041-.126-.08-.261-.121-.408s-.076-.284-.105-.423-.053-.265-.07-.378a.971.971,0,0,1-.015-.241.34.34,0,0,1,.156-.261,3.623,3.623,0,0,1,.382-.229,4.346,4.346,0,0,0,.378-.22.376.376,0,0,0,.157-.448.306.306,0,0,0-.363-.218,1.86,1.86,0,0,0-.287.061c-.3.093-.6.2-.878.318s-.561.216-.855.309c-.263.082-.537.153-.814.213s-.563.133-.841.221a.413.413,0,0,0-.255.188.383.383,0,0,0-.019.314.314.314,0,0,0,.205.213M-67.02-562.8a.871.871,0,0,0,.279.151l.179.057a5.335,5.335,0,0,0,.726.186,5.106,5.106,0,0,1,.685.175,6.99,6.99,0,0,1,.691.267,6.819,6.819,0,0,0,.717.276,3.649,3.649,0,0,0,.4.109.523.523,0,0,0,.094.01.335.335,0,0,0,.325-.257.3.3,0,0,0-.147-.362c-.09-.06-.194-.12-.316-.186s-.235-.126-.357-.195a.52.52,0,0,1-.213-.188.5.5,0,0,1-.04-.357,3.813,3.813,0,0,1,.113-.455l1.063-3.263q.265-.8.539-1.588t.542-1.6c.049-.149.1-.277.14-.383a.388.388,0,0,1,.142-.186.421.421,0,0,1,.247-.049,2.283,2.283,0,0,1,.518.117,1.3,1.3,0,0,0,.364.071.356.356,0,0,0,.346-.272h0a.48.48,0,0,0,.014-.165.4.4,0,0,0-.037-.16l-.029-.054-1.168-.38a4.013,4.013,0,0,0-.392-.107c-.126-.028-.247-.059-.363-.1a7.73,7.73,0,0,1-.721-.279c-.242-.107-.494-.2-.75-.287l-.141-.045a1.563,1.563,0,0,0-.251-.058.276.276,0,0,0-.328.2.367.367,0,0,0,.088.424,1.138,1.138,0,0,0,.318.186c.113.046.228.1.345.16a.49.49,0,0,1,.207.2.72.72,0,0,1-.007.325,3.512,3.512,0,0,1-.111.465l-.08.243q-.1.318-.213.635c-.074.214-.148.431-.22.653l-1.56,4.744a4.456,4.456,0,0,1-.191.477.429.429,0,0,1-.206.242.6.6,0,0,1-.3.046c-.134-.013-.262-.025-.381-.041a1.736,1.736,0,0,0-.349-.023.312.312,0,0,0-.312.217.334.334,0,0,0,.1.394M-83.285-575.71h.017a.91.91,0,0,0,.607-.232.756.756,0,0,0,.262-.61h0a.9.9,0,0,0-.247-.6.8.8,0,0,0-.609-.267.911.911,0,0,0-.63.256.811.811,0,0,0-.266.628.787.787,0,0,0,.271.606.875.875,0,0,0,.594.222m2.65-.047a.234.234,0,0,0,.092.016h.007a.921.921,0,0,0,.638-.25.832.832,0,0,0,.258-.648.82.82,0,0,0-.255-.6.847.847,0,0,0-.6-.224h-.018a.85.85,0,0,0-.621.253.837.837,0,0,0-.235.617.888.888,0,0,0,.21.562.76.76,0,0,0,.522.277m-41.751,15.951a2.723,2.723,0,0,1,.763-.437,1.926,1.926,0,0,1,.656-.119c.037,0,.073,0,.109,0a1.791,1.791,0,0,1,.74.217,2.212,2.212,0,0,1,.679.587,2.319,2.319,0,0,1,.48.891,1.444,1.444,0,0,1-.014.766,1.967,1.967,0,0,1-.405.709,5.335,5.335,0,0,1-.713.68.946.946,0,0,1-.263.167c-.047.017-.068.006-.077,0a.5.5,0,0,1-.127-.128c-.056-.077-.127-.171-.213-.278q-.335-.419-.744-.951t-.748-.956l-.286-.358a.6.6,0,0,1-.159-.379c0-.06.049-.192.324-.414m-2.734,2.176a1.173,1.173,0,0,0,.284-.148l.3-.2a1.2,1.2,0,0,1,.289-.147.436.436,0,0,1,.262-.008.577.577,0,0,1,.271.211q.715.892,1.4,1.787t1.406,1.79l1.732,2.166a.659.659,0,0,1,.161.336.646.646,0,0,1-.046.307.972.972,0,0,1-.174.282c-.082.1-.163.184-.238.268a2.1,2.1,0,0,0-.19.236.273.273,0,0,0,0,.337.414.414,0,0,0,.285.192h.025a.605.605,0,0,0,.271-.147c.22-.176.432-.364.632-.559s.4-.37.609-.538c.242-.192.5-.378.765-.552s.541-.371.8-.577a1.613,1.613,0,0,0,.318-.313.34.34,0,0,0-.044-.434.269.269,0,0,0-.325-.089.9.9,0,0,0-.208.126c-.026.021-.039.029-.039.03l-.03.011c-.166.086-.312.168-.437.244a.928.928,0,0,1-.308.129.42.42,0,0,1-.262-.039,1.1,1.1,0,0,1-.345-.314l-1.732-2.165a.889.889,0,0,1-.192-.307s.007-.052.139-.156a1.183,1.183,0,0,1,.7-.289,2.4,2.4,0,0,1,.786.11,5,5,0,0,1,.838.357c.293.159.594.306.881.427a4.9,4.9,0,0,0,2.09.671,3.825,3.825,0,0,0,2.161-.491c.056-.034.124-.076.2-.126s.156-.107.23-.165a1.676,1.676,0,0,0,.377-.384l.021-.057a.444.444,0,0,0-.063-.339.3.3,0,0,0-.392-.063,1.663,1.663,0,0,1-.3.11,2.026,2.026,0,0,1-1.022.214,4.851,4.851,0,0,1-1.133-.2,8.918,8.918,0,0,1-1.152-.444q-.577-.268-1.091-.513a7.455,7.455,0,0,0-.957-.385,1.682,1.682,0,0,0-.5-.088c.073-.168.141-.342.2-.526a3.786,3.786,0,0,0,.183-.843,2.719,2.719,0,0,0-.05-.861,1.956,1.956,0,0,0-.386-.8,2.736,2.736,0,0,0-1.106-.877,2.64,2.64,0,0,0-1.15-.183,2.934,2.934,0,0,0-1.058.284,4.621,4.621,0,0,0-.844.526c-.268.214-.533.434-.795.662s-.523.444-.787.655l-.915.731a2.407,2.407,0,0,1-.235.171c-.089.062-.174.123-.254.187a1.465,1.465,0,0,0-.23.231.336.336,0,0,0,.031.439.3.3,0,0,0,.341.105m37.752-16.448a1.613,1.613,0,0,0,.221.025c.071,0,.131.006.179,0l.148,0a.377.377,0,0,1,.308.1.684.684,0,0,1,.173.294,1.65,1.65,0,0,1,.069.412c.007.16.011.3.014.427.011.736.015,1.495.01,2.257-.007.742,0,1.5.009,2.264l.008.5c0,.084,0,.167.01.248s.014.168.026.25a3.227,3.227,0,0,0,.432,1.344,2.626,2.626,0,0,0,.852.853,3.427,3.427,0,0,0,1.159.437,6.481,6.481,0,0,0,1.222.111h.115a8.261,8.261,0,0,0,1.2-.109,5.661,5.661,0,0,0,1.2-.331,2.365,2.365,0,0,0,1.046-.791,3.551,3.551,0,0,0,.528-1.109,5.338,5.338,0,0,0,.194-1.269c.016-.436.021-.857.015-1.245,0-.243-.011-.487-.019-.728s-.015-.483-.018-.724c0-.27-.011-.584-.022-.945s-.016-.7-.017-1.031.01-.615.032-.855a1.014,1.014,0,0,1,.062-.318.682.682,0,0,1,.207-.05q.2-.033.419-.083a1.839,1.839,0,0,0,.409-.146.39.39,0,0,0,.235-.362.36.36,0,0,0-.287-.331l-.025-.008h-.025c-.244,0-.49.015-.734.032s-.479.028-.718.032-.465,0-.7-.015-.481-.022-.717-.016a.889.889,0,0,0-.24.035.281.281,0,0,0-.192.3.413.413,0,0,0,.205.384,1.07,1.07,0,0,0,.356.118c.125.022.25.04.377.056a.425.425,0,0,1,.237.1.512.512,0,0,1,.12.308,4.617,4.617,0,0,1,.048.631c0,.241,0,.491,0,.749s0,.5,0,.7l.047,2.879a3.6,3.6,0,0,1-.068.758,4.5,4.5,0,0,1-.307,1.12,2.1,2.1,0,0,1-.51.72,1.913,1.913,0,0,1-.77.405,4.635,4.635,0,0,1-1.141.143,4.045,4.045,0,0,1-1.016-.1,1.775,1.775,0,0,1-.759-.387,2.05,2.05,0,0,1-.528-.783,4.618,4.618,0,0,1-.275-1.326c-.022-.276-.038-.552-.046-.827s-.016-.554-.019-.831l-.041-2.476q0-.2,0-.426c0-.15.009-.294.018-.435s.025-.268.041-.384a1.009,1.009,0,0,1,.053-.234.34.34,0,0,1,.223-.206,3.531,3.531,0,0,1,.433-.111,3.982,3.982,0,0,0,.424-.1.371.371,0,0,0,.278-.384.309.309,0,0,0-.286-.313,1.992,1.992,0,0,0-.293-.024c-.32.006-.634.024-.932.056s-.6.05-.908.055c-.282,0-.566,0-.842-.026a8.434,8.434,0,0,0-.87-.026.371.371,0,0,0-.4.4.309.309,0,0,0,.134.261.612.612,0,0,0,.234.1M-28.737-543.6l-3.409,1.951c-.22.126-.481.285-.781.479s-.6.373-.9.544a7.763,7.763,0,0,1-.828.415.88.88,0,0,1-.522.1.63.63,0,0,1-.32-.211c-.093-.118-.175-.231-.249-.34a1.39,1.39,0,0,0-.244-.291.353.353,0,0,0-.436-.016.358.358,0,0,0-.163.191.306.306,0,0,0,.016.275c.149.262.29.486.415.668l.361.523c.116.165.236.338.361.521s.259.4.4.648a14.192,14.192,0,0,1,.8,1.631,14.493,14.493,0,0,0,.811,1.664.265.265,0,0,0,.247.118.928.928,0,0,0,.224-.034c.176-.044.405-.105.688-.183s.6-.15.963-.215a5.265,5.265,0,0,1,1.158-.073l.077,0,.045-.061a.412.412,0,0,0,.056-.379.461.461,0,0,0-.286-.3,1.562,1.562,0,0,0-.394-.018c-.2,0-.427,0-.684-.009a7.155,7.155,0,0,1-.749-.064,1.5,1.5,0,0,1-.549-.167,2.268,2.268,0,0,1-.374-.277,3.735,3.735,0,0,1-.511-.544,2.969,2.969,0,0,1-.411-.705,1.434,1.434,0,0,1-.108-.743.422.422,0,0,1,.136-.2,3.4,3.4,0,0,1,.353-.291q.21-.151.452-.3c.165-.1.316-.189.456-.268l.442-.254q1.063-.61,2.091-1.182t2.091-1.183c.061-.034.134-.073.22-.118a2.778,2.778,0,0,1,.259-.118,1.46,1.46,0,0,1,.251-.074.379.379,0,0,1,.179.009.5.5,0,0,1,.22.189l.25.354a1.958,1.958,0,0,0,.262.31.342.342,0,0,0,.425.049.428.428,0,0,0,.2-.307l.01-.053-.026-.048c-.188-.325-.368-.622-.533-.875s-.328-.518-.49-.8a8.834,8.834,0,0,1-.411-.81c-.125-.281-.267-.563-.423-.836a2.118,2.118,0,0,0-.188-.27.327.327,0,0,0-.447-.06.352.352,0,0,0-.151.465c.05.133.109.283.178.447a1.724,1.724,0,0,1,.121.46.353.353,0,0,1-.153.324,3.017,3.017,0,0,1-.476.332m-100.841-6.964.776.3c.3.119.633.247.985.38.3.114.577.22.847.321q-.519.606-.8.95c-.2.238-.344.414-.444.53l-.1.113-.421-.837c-.136-.27-.261-.513-.374-.726s-.216-.423-.318-.628c-.064-.126-.135-.269-.212-.428l.062.023m-.571.987q.6,1.165,1.2,2.34l.71,1.375c.234.454.473.909.718,1.363.03.064.079.156.148.281s.131.245.192.374.125.257.183.377a1.1,1.1,0,0,1,.092.223.4.4,0,0,1,0,.281,2.321,2.321,0,0,1-.139.283,1.128,1.128,0,0,0-.126.289.365.365,0,0,0,.15.375h0a.4.4,0,0,0,.222.093l.029,0a.308.308,0,0,0,.237-.116,4.509,4.509,0,0,0,.348-.462,3.87,3.87,0,0,1,.325-.431,8.189,8.189,0,0,1,.594-.625,8.483,8.483,0,0,0,.614-.645.406.406,0,0,0,.1-.287.375.375,0,0,0-.135-.284.383.383,0,0,0-.508,0,4.794,4.794,0,0,0-.379.325,1.722,1.722,0,0,1-.363.272c-.056.03-.131.048-.252-.057a1.663,1.663,0,0,1-.2-.281q-.177-.266-.427-.673c-.166-.271-.346-.581-.537-.925-.179-.321-.355-.657-.525-1a2.652,2.652,0,0,1,.195-.285c.105-.135.215-.273.331-.406s.239-.278.356-.408.212-.237.283-.32l.166-.195c.1-.112.194-.218.294-.315a.371.371,0,0,1,.214-.123.466.466,0,0,1,.1.025c.078.023.165.047.257.07.321.1.631.2.933.3l.035.011c.313.1.6.2.85.286l.662.229c.182.063.315.113.4.15l.079.036a.148.148,0,0,1,.042.025c.092.078.07.126.056.158a1.8,1.8,0,0,1-.21.339c-.1.129-.181.248-.252.358a.322.322,0,0,0,.04.443.391.391,0,0,0,.329.09.456.456,0,0,0,.289-.159c.206-.24.4-.492.584-.747s.366-.49.568-.727a5.292,5.292,0,0,1,.44-.452,5.356,5.356,0,0,0,.463-.477l.1-.113a.98.98,0,0,0,.166-.278.313.313,0,0,0-.074-.378.352.352,0,0,0-.447-.034c-.1.065-.2.144-.322.238a2.624,2.624,0,0,1-.357.242.478.478,0,0,1-.371.028c-1.007-.266-2.022-.558-3.02-.867s-2-.644-2.978-.988l-1.6-.533-1.6-.534a.816.816,0,0,0-.195-.038.31.31,0,0,0-.271.115.3.3,0,0,0-.087.266.633.633,0,0,0,.07.16q.608,1.175,1.2,2.339m54.114-15.006c.292.052.554.088.779.109l.633.056.631.056c.215.021.47.056.756.105a14.881,14.881,0,0,1,1.764.431,14.093,14.093,0,0,0,1.8.44.149.149,0,0,0,.039,0c.175,0,.284-.224.325-.312.08-.165.18-.38.3-.648s.269-.559.45-.877a5.383,5.383,0,0,1,.684-.938l.05-.056-.018-.074a.413.413,0,0,0-.255-.285.459.459,0,0,0-.413.03,1.794,1.794,0,0,0-.266.29c-.126.155-.275.328-.443.519a6.681,6.681,0,0,1-.528.537,1.518,1.518,0,0,1-.48.314,2.05,2.05,0,0,1-.452.11,3.652,3.652,0,0,1-.744.047,3.073,3.073,0,0,1-.806-.135,1.424,1.424,0,0,1-.639-.393.412.412,0,0,1-.064-.23,3.2,3.2,0,0,1,0-.456c.013-.173.032-.352.061-.538s.058-.363.085-.522l.088-.5q.211-1.2.428-2.36t.428-2.366c.011-.069.027-.149.05-.244s.045-.183.073-.275a1.363,1.363,0,0,1,.1-.239.331.331,0,0,1,.12-.132.516.516,0,0,1,.286-.049l.431.034a1.821,1.821,0,0,0,.405,0,.339.339,0,0,0,.312-.3.439.439,0,0,0-.11-.346l-.034-.042-.054-.009c-.374-.068-.717-.117-1.014-.15s-.6-.079-.931-.137a8.712,8.712,0,0,1-.885-.2A8.813,8.813,0,0,0-74-574.53a1.791,1.791,0,0,0-.329-.029.324.324,0,0,0-.33.3.349.349,0,0,0,.261.415c.133.047.286.1.456.149a1.72,1.72,0,0,1,.432.2.352.352,0,0,1,.151.323,2.949,2.949,0,0,1-.049.578l-.678,3.87c-.045.251-.089.552-.133.906s-.094.7-.155,1.039a7.312,7.312,0,0,1-.212.9.873.873,0,0,1-.255.468.682.682,0,0,1-.365.11c-.149,0-.29-.013-.419-.027a1.439,1.439,0,0,0-.38,0,.354.354,0,0,0-.292.325.38.38,0,0,0,.042.249.309.309,0,0,0,.222.161m15.777,3.189a.557.557,0,0,1-.247-.069c-.118-.055-.235-.105-.353-.15a1.2,1.2,0,0,0-.362-.08.356.356,0,0,0-.356.213.309.309,0,0,0,.1.406,1.875,1.875,0,0,0,.254.163c.341.174.677.331,1,.465s.644.284.978.457a4.465,4.465,0,0,1,.467.276,5.026,5.026,0,0,0,.5.293l.155.078a.7.7,0,0,0,.32.079.342.342,0,0,0,.332-.208.285.285,0,0,0-.029-.338.836.836,0,0,0-.2-.159,2.429,2.429,0,0,0-.224-.115.191.191,0,0,1-.063-.038l-.024-.05-.052-.021a.477.477,0,0,1-.276-.216.527.527,0,0,1-.049-.314,1.51,1.51,0,0,1,.11-.4c.058-.145.119-.276.178-.393.152-.294.3-.585.454-.869s.3-.577.455-.873l.275-.538c.057-.11.112-.214.167-.31.033-.058.061-.1.085-.141a1.134,1.134,0,0,0,.121.087,2.277,2.277,0,0,1,.2.433c.082.229.171.5.26.791s.18.622.269.959.172.667.25.986l.348,1.48c0,.034.014.093.031.176s.029.16.049.273l.039.216a1.219,1.219,0,0,1,.017.131.035.035,0,0,1,0,.011.453.453,0,0,1-.085-.032c-.039-.02-.108-.058-.206-.113a2.169,2.169,0,0,0-.356-.159,1.263,1.263,0,0,0-.378-.073.357.357,0,0,0-.349.192.313.313,0,0,0,0,.369.7.7,0,0,0,.22.161c.3.155.62.306.947.448s.625.283.929.438c.249.128.494.266.73.41s.487.289.749.424a1.588,1.588,0,0,0,.214.085.35.35,0,0,0,.115.021.279.279,0,0,0,.238-.133.36.36,0,0,0-.037-.477,3.007,3.007,0,0,0-.271-.224,1.742,1.742,0,0,1-.4-.491,3.834,3.834,0,0,1-.276-.628,7.016,7.016,0,0,1-.2-.7c-.057-.246-.115-.481-.174-.711q-.041-.127-.148-.5l-.246-.876c-.1-.33-.191-.679-.294-1.049s-.195-.714-.277-1.033-.155-.593-.213-.826c-.039-.156-.057-.249-.066-.3.047-.018.132-.05.277-.094.22-.069.488-.146.805-.235s.66-.182,1.032-.277.721-.183,1.051-.26.623-.142.875-.192a1.769,1.769,0,0,1,.474-.073,1.2,1.2,0,0,1,.373.064c.149.052.292.1.426.151a1.741,1.741,0,0,0,.392.1.34.34,0,0,0,.37-.189.331.331,0,0,0-.013-.341.529.529,0,0,0-.21-.189c-.2-.1-.405-.2-.609-.289s-.4-.183-.594-.284c-.222-.112-.437-.23-.648-.354s-.433-.245-.65-.355c-.112-.06-.231-.116-.355-.175a.414.414,0,0,0-.479.063l-.08.136a.3.3,0,0,0,.137.411,4.022,4.022,0,0,0,.364.227c.125.07.236.137.337.207.034.025.046.042.052.042a.844.844,0,0,1-.227.12c-.171.071-.384.15-.634.234s-.53.171-.861.268l-.828.237c-.271.078-.515.145-.731.206s-.374.105-.459.133l-.236.076a2.564,2.564,0,0,1-.3.077,1.672,1.672,0,0,1-.313.037c-.027,0-.055,0-.082,0,.011-.017.018-.03.023-.038l.325-.634q.148-.289.281-.562t.278-.559l.325-.633c.168-.329.3-.408.357-.427a.542.542,0,0,1,.344.007,1.922,1.922,0,0,1,.357.176.391.391,0,0,0,.433.053.426.426,0,0,0,.132-.121.444.444,0,0,1,.064-.066l.044-.05a.27.27,0,0,0-.078-.329.818.818,0,0,0-.222-.166l-.108-.056a5.454,5.454,0,0,0-.569-.252c-.176-.068-.358-.149-.538-.239l-.372-.19a6.119,6.119,0,0,1-.577-.34,5.591,5.591,0,0,0-.608-.357l-.131-.068a1.11,1.11,0,0,0-.273-.1.28.28,0,0,0-.334.142.391.391,0,0,0-.014.384.763.763,0,0,0,.232.244,2.247,2.247,0,0,0,.3.17,1.181,1.181,0,0,1,.235.142.21.21,0,0,1,.108.234,1.558,1.558,0,0,1-.134.38l-.748,1.461q-.613,1.2-1.235,2.366t-1.237,2.37c-.034.07-.08.145-.132.229a1.566,1.566,0,0,1-.169.226,1.119,1.119,0,0,1-.2.168.3.3,0,0,1-.161.052m-79.532,22.1a1.362,1.362,0,0,0,.258.23l.258.181a6.452,6.452,0,0,1,.825.682,2.546,2.546,0,0,0,.505.427.375.375,0,0,0,.331.055.45.45,0,0,0,.221-.208c.056-.1.014-.218-.074-.38-.071-.133-.155-.275-.251-.427s-.187-.292-.274-.427a1.006,1.006,0,0,1-.136-.248,1.273,1.273,0,0,1-.014-.589,1.912,1.912,0,0,1,.212-.521l.423-.719a3.742,3.742,0,0,1,.333-.48.656.656,0,0,1,.148-.137,1.949,1.949,0,0,1,.2.1c.1.056.175.1.213.118l5.616,3.3a4.262,4.262,0,0,1,.507.342.859.859,0,0,1,.243.3.651.651,0,0,1,.037.362,2.428,2.428,0,0,1-.2.587.712.712,0,0,1-.064.126.84.84,0,0,0-.105.294.335.335,0,0,0,.187.356.354.354,0,0,0,.175.054.263.263,0,0,0,.207-.108,1.907,1.907,0,0,0,.134-.2c.165-.282.322-.569.464-.856s.286-.553.452-.837c.181-.306.37-.608.566-.9s.4-.606.576-.913a2.54,2.54,0,0,0,.134-.256c.037-.092.032-.233-.211-.375-.074-.043-.269-.118-.467.144l-.322.428a1.661,1.661,0,0,1-.392.373.5.5,0,0,1-.478.018,2.546,2.546,0,0,1-.374-.169c-.125-.066-.249-.137-.368-.206-.669-.416-1.361-.818-2.051-1.2s-1.371-.776-2.041-1.19l-1.4-.855a2.324,2.324,0,0,1-.358-.247c-.081-.073-.1-.112-.093-.15.033-.047.066-.1.1-.158s.081-.143.133-.24.109-.2.175-.313c.09-.151.191-.308.3-.474a5.219,5.219,0,0,1,.339-.446,1.476,1.476,0,0,1,.33-.3.41.41,0,0,1,.261-.073.878.878,0,0,1,.347.139c.125.085.239.164.344.239a1.18,1.18,0,0,0,.321.179.306.306,0,0,0,.376-.16c.07-.121.107-.32-.128-.57a4.461,4.461,0,0,0-.553-.486q-.328-.247-.678-.491a2.575,2.575,0,0,1-.492-.428h0a.606.606,0,0,0-.363-.206.407.407,0,0,0-.449.228.281.281,0,0,0,.011.289c.03.056.062.125.094.2a1.044,1.044,0,0,1,.07.236.394.394,0,0,1-.023.212c-.05.12-.109.239-.173.359s-.132.238-.2.353q-.328.557-.62,1.083c-.194.346-.4.707-.617,1.077q-.409.7-.853,1.413t-.888,1.393a.465.465,0,0,1-.182.174.678.678,0,0,1-.2.061c-.07.008-.131.016-.184.019a.279.279,0,0,0-.228.135.515.515,0,0,0-.077.38.691.691,0,0,0,.15.3m91.018-17.985a7.1,7.1,0,0,1,.61-1.506A7.753,7.753,0,0,1-47.3-560.1a4.524,4.524,0,0,1,1.137-1.02,3.039,3.039,0,0,1,1.381-.45c.057,0,.115-.007.173-.007a3.131,3.131,0,0,1,1.444.4,3.142,3.142,0,0,1,1.222,1.071,3.28,3.28,0,0,1,.5,1.4,4.53,4.53,0,0,1-.1,1.572,6.715,6.715,0,0,1-.594,1.58,8.485,8.485,0,0,1-.889,1.318,4.912,4.912,0,0,1-1.185,1.056,3.236,3.236,0,0,1-1.42.488,2.8,2.8,0,0,1-1.609-.385,3.06,3.06,0,0,1-1.271-1.149,3.308,3.308,0,0,1-.439-1.466,4.809,4.809,0,0,1,.181-1.587m-.6-3.043a5.675,5.675,0,0,0-1.006,1.886,5.084,5.084,0,0,0-.2,1.966,4.828,4.828,0,0,0,.6,1.875,5.359,5.359,0,0,0,1.377,1.592,5.3,5.3,0,0,0,1.941.977,5.709,5.709,0,0,0,1.453.191,5.582,5.582,0,0,0,.634-.038,5.456,5.456,0,0,0,1.98-.635,5.286,5.286,0,0,0,1.63-1.382,5.136,5.136,0,0,0,.976-1.926,5.088,5.088,0,0,0,.105-2.01,5.359,5.359,0,0,0-.68-1.893,5.7,5.7,0,0,0-1.383-1.578,5.286,5.286,0,0,0-1.892-.972,5.053,5.053,0,0,0-2-.141,5.108,5.108,0,0,0-1.908.662,5.79,5.79,0,0,0-1.622,1.427m10.471,9.581a7.856,7.856,0,0,1,1.114-1.11,4.533,4.533,0,0,1,1.324-.764,3,3,0,0,1,1.04-.182,3.4,3.4,0,0,1,.4.024,2.992,2.992,0,0,1,1.5.723,3.171,3.171,0,0,1,.976,1.3,3.291,3.291,0,0,1,.2,1.47,4.562,4.562,0,0,1-.424,1.517,6.82,6.82,0,0,1-.907,1.422,8.476,8.476,0,0,1-1.142,1.107,4.921,4.921,0,0,1-1.377.789,3.241,3.241,0,0,1-1.49.186,2.814,2.814,0,0,1-1.5-.708,3.058,3.058,0,0,1-1.008-1.386,3.33,3.33,0,0,1-.128-1.523,4.841,4.841,0,0,1,.505-1.519,7.207,7.207,0,0,1,.907-1.348m-2.238-.112a5.064,5.064,0,0,0-.6,1.882,4.792,4.792,0,0,0,.195,1.957,5.355,5.355,0,0,0,1.02,1.84,5.287,5.287,0,0,0,1.7,1.356,5.619,5.619,0,0,0,2.011.581c.161.015.322.022.483.022a5.508,5.508,0,0,0,1.586-.236,5.338,5.338,0,0,0,1.879-1.017,5.165,5.165,0,0,0,1.351-1.686A5.09,5.09,0,0,0-31-548.1a5.3,5.3,0,0,0-.276-1.994,5.631,5.631,0,0,0-1.028-1.828,5.3,5.3,0,0,0-1.651-1.343,5.071,5.071,0,0,0-1.925-.547,5.063,5.063,0,0,0-2,.255,5.727,5.727,0,0,0-1.879,1.063,5.725,5.725,0,0,0-1.373,1.639m-89.446,79.434a.457.457,0,0,0-.415-.14c-.16,0-.338.017-.536.039s-.386.036-.584.045a1.052,1.052,0,0,1-.447-.06.8.8,0,0,1-.207-.139,2.7,2.7,0,0,1-.245-.251c-.085-.1-.171-.2-.26-.312s-.164-.211-.229-.3l-.24-.342c-.046-.065-.119-.175-.223-.33s-.21-.32-.317-.489-.2-.33-.284-.487a1.109,1.109,0,0,1-.128-.306.372.372,0,0,1,.047-.231,1.178,1.178,0,0,1,.191-.251,2.314,2.314,0,0,1,.258-.228c.1-.072.182-.136.262-.192l1.743-1.221c.029-.021.081-.061.155-.117a1.72,1.72,0,0,1,.207-.137,1.452,1.452,0,0,1,.216-.1,1.487,1.487,0,0,1,.107.11c.048.054.1.113.145.174l.143.18c.044.054.076.1.1.133.1.14.212.3.342.478a3.476,3.476,0,0,1,.317.52,1.381,1.381,0,0,1,.143.48.412.412,0,0,1-.118.334l-.025.04a.581.581,0,0,1-.113.14c-.077.076-.15.154-.223.232a1.445,1.445,0,0,0-.192.252.3.3,0,0,0-.01.347.309.309,0,0,0,.24.141.452.452,0,0,0,.236-.054,1.088,1.088,0,0,0,.187-.122c.049-.04.092-.071.127-.1.156-.11.308-.222.455-.337s.291-.22.444-.326.307-.212.464-.309.321-.21.476-.318a2.92,2.92,0,0,0,.235-.181.283.283,0,0,0,.041-.4.329.329,0,0,0-.273-.144,1.545,1.545,0,0,0-.191.018l-.053.018a1.236,1.236,0,0,1-.588.194.678.678,0,0,1-.5-.237,5.333,5.333,0,0,1-.463-.555q-.222-.3-.429-.6c-.032-.045-.073-.1-.126-.167s-.092-.125-.134-.191a.935.935,0,0,1-.1-.188.186.186,0,0,1-.015-.069,1.285,1.285,0,0,1,.165-.134l.252-.176c.251-.175.5-.354.747-.533s.495-.355.744-.529c.123-.087.254-.173.393-.259a1.391,1.391,0,0,1,.38-.172.623.623,0,0,1,.328,0,.621.621,0,0,1,.3.258l.339.484c.1.147.211.3.321.47s.211.329.3.489a4.575,4.575,0,0,1,.226.449,1.17,1.17,0,0,1,.1.308.556.556,0,0,1-.086.34c-.08.136-.166.269-.258.4a4.421,4.421,0,0,0-.242.373.377.377,0,0,0-.006.425l.011.014q.146.161.456,0a3.982,3.982,0,0,0,.45-.271c.131-.093.242-.168.336-.228s.178-.116.245-.164a2.72,2.72,0,0,0,.4-.353.329.329,0,0,0,.031-.376,1.679,1.679,0,0,0-.16-.278l-.084-.123c-.357-.507-.711-1-1.066-1.483s-.705-.972-1.06-1.48q-.27-.381-.513-.766c-.165-.259-.337-.514-.512-.765-.046-.065-.1-.147-.161-.243a2.253,2.253,0,0,0-.214-.281,1.228,1.228,0,0,0-.239-.205.308.308,0,0,0-.362,0,.345.345,0,0,0-.1.471c.063.128.135.271.219.43a1.323,1.323,0,0,1,.141.433c.006.041.023.169-.2.353a.5.5,0,0,1-.1.08l-.271.19q-.893.627-1.768,1.255t-1.764,1.255c-.184.128-.4.284-.64.465s-.48.353-.721.522a7.079,7.079,0,0,1-.66.414,1.125,1.125,0,0,1-.447.163h0a.6.6,0,0,1-.333-.112,3.287,3.287,0,0,1-.366-.287c-.123-.111-.232-.2-.329-.276a.32.32,0,0,0-.4-.048.312.312,0,0,0-.134.433c.053.09.108.178.167.261.079.113.16.221.244.325s.156.2.226.3l3.645,5.2a.515.515,0,0,0,.434.243h.013l.052-.01.654-.271.474-.191.234-.1a.919.919,0,0,0,.178-.061c.061-.025.1-.04.116-.052a.464.464,0,0,0,.252-.132.286.286,0,0,0,0-.394m6.961,3.11a5.458,5.458,0,0,1-.76-.629,1.017,1.017,0,0,1-.2-.242c-.023-.047-.014-.066-.009-.076a.451.451,0,0,1,.113-.142c.07-.065.153-.145.25-.245q.378-.381.858-.85t.862-.855l.322-.325a.587.587,0,0,1,.357-.2h.01c.064,0,.2.04.439.275a2.746,2.746,0,0,1,.526.7,1.887,1.887,0,0,1,.2.747,1.819,1.819,0,0,1-.127.76,2.178,2.178,0,0,1-.505.743,2.3,2.3,0,0,1-.828.582,1.428,1.428,0,0,1-.762.076,1.968,1.968,0,0,1-.751-.32m1.9,1.485a2.766,2.766,0,0,0,.847-.151,1.962,1.962,0,0,0,.747-.478,2.75,2.75,0,0,0,.742-1.2,2.609,2.609,0,0,0,.046-1.162,2.906,2.906,0,0,0-.407-1.018,4.571,4.571,0,0,0-.62-.776q-.366-.362-.751-.712t-.744-.705l-.831-.82c-.068-.069-.134-.139-.2-.215s-.142-.16-.214-.23a1.426,1.426,0,0,0-.255-.2.334.334,0,0,0-.434.081.3.3,0,0,0-.065.35,1.166,1.166,0,0,0,.181.266l.236.27a1.205,1.205,0,0,1,.18.27.439.439,0,0,1,.039.26.57.57,0,0,1-.177.293q-.8.813-1.61,1.6t-1.611,1.607l-1.947,1.972a.665.665,0,0,1-.316.2.657.657,0,0,1-.309-.009,1,1,0,0,1-.3-.14c-.1-.072-.2-.141-.294-.206a2.195,2.195,0,0,0-.257-.162.27.27,0,0,0-.333.044c-.088.087-.184.205-.155.329a.581.581,0,0,0,.178.253,8.15,8.15,0,0,0,.629.562c.21.171.413.353.606.543a8.915,8.915,0,0,1,.637.694c.21.251.434.495.668.724a1.589,1.589,0,0,0,.348.279.342.342,0,0,0,.426-.094.271.271,0,0,0,.05-.334.9.9,0,0,0-.15-.191c-.023-.023-.032-.034-.033-.034l-.015-.029c-.1-.155-.2-.29-.3-.406a.941.941,0,0,1-.163-.292.42.42,0,0,1,.006-.265,1.12,1.12,0,0,1,.273-.378l1.946-1.974a.9.9,0,0,1,.282-.226s.054,0,.173.119a1.209,1.209,0,0,1,.369.664,2.322,2.322,0,0,1-.018.794,4.931,4.931,0,0,1-.257.875c-.123.308-.232.625-.321.924a4.914,4.914,0,0,0-.421,2.154,3.837,3.837,0,0,0,.743,2.089c.04.052.089.112.148.184s.125.143.191.21a1.652,1.652,0,0,0,.424.33l.029.014h.032a.443.443,0,0,0,.33-.1.3.3,0,0,0,.016-.4,1.75,1.75,0,0,1-.145-.284,2.026,2.026,0,0,1-.331-.991,4.689,4.689,0,0,1,.071-1.15,8.516,8.516,0,0,1,.3-1.2c.134-.4.261-.786.382-1.144a7.565,7.565,0,0,0,.269-1,1.784,1.784,0,0,0,.029-.512c.174.054.356.1.545.14a3.91,3.91,0,0,0,.86.084M-137.554-494.1q.811-.2,1.63-.434c.151-.041.283-.074.394-.1a.387.387,0,0,1,.232.016.4.4,0,0,1,.179.179,2.251,2.251,0,0,1,.19.5,1.318,1.318,0,0,0,.142.342.341.341,0,0,0,.42.137.443.443,0,0,0,.144-.08.466.466,0,0,0,.113-.118l.029-.053-.331-1.184a3.7,3.7,0,0,0-.128-.385c-.047-.121-.087-.24-.119-.356a7.37,7.37,0,0,1-.172-.756,7.289,7.289,0,0,0-.176-.782l-.039-.143a1.673,1.673,0,0,0-.09-.242.282.282,0,0,0-.353-.16.368.368,0,0,0-.3.309,1.119,1.119,0,0,0,.022.368c.024.119.042.245.057.376a.49.49,0,0,1-.052.284.739.739,0,0,1-.275.174,3.164,3.164,0,0,1-.449.165l-.247.069c-.214.062-.431.119-.646.175s-.44.117-.665.179l-4.811,1.331a3.925,3.925,0,0,1-.5.108.434.434,0,0,1-.317-.038.6.6,0,0,1-.2-.227c-.066-.12-.125-.232-.179-.341a2.079,2.079,0,0,0-.174-.3.311.311,0,0,0-.354-.14.335.335,0,0,0-.27.306.9.9,0,0,0,.03.315l.052.182a5.356,5.356,0,0,0,.247.707,4.847,4.847,0,0,1,.235.668,6.962,6.962,0,0,1,.159.72,7.574,7.574,0,0,0,.167.751,3.725,3.725,0,0,0,.133.391.332.332,0,0,0,.316.232.419.419,0,0,0,.12-.018.3.3,0,0,0,.22-.324c0-.106-.007-.228-.021-.365s-.026-.265-.038-.405a.549.549,0,0,1,.039-.281.517.517,0,0,1,.277-.234,3.773,3.773,0,0,1,.441-.156l3.3-.924q.814-.229,1.622-.434m-3.846-5.379,2.769-.3c.088-.009.226-.023.412-.037s.378-.028.578-.035a4.216,4.216,0,0,1,.558.011.886.886,0,0,1,.328.072.337.337,0,0,1,.124.207c.035.137.069.276.1.413a2.1,2.1,0,0,0,.116.4.342.342,0,0,0,.328.238l.045,0c.087-.01.365-.072.324-.478q-.04-.352-.1-.708t-.1-.692c-.03-.285-.052-.572-.064-.851s-.034-.577-.065-.868a.59.59,0,0,0-.09-.258.324.324,0,0,0-.326-.14.362.362,0,0,0-.345.387c0,.151,0,.324.021.513a1.912,1.912,0,0,1-.023.494.309.309,0,0,1-.239.243,1.643,1.643,0,0,1-.317.078c-.113.017-.232.032-.355.046q-1.044.11-2.088.23t-2.087.218l-1.625.175a.6.6,0,0,1-.1.006q1.151-1.2,2.011-2.1.895-.941,1.606-1.7t1.3-1.383c.392-.417.783-.826,1.183-1.24a3.392,3.392,0,0,1,.36-.416,3.864,3.864,0,0,0,.277-.29.961.961,0,0,0,.181-.306,1.038,1.038,0,0,0,.027-.437c-.017-.155-.037-.3-.062-.442s-.042-.276-.057-.424c-.022-.195-.037-.385-.049-.57s-.027-.385-.048-.583A.722.722,0,0,0-137-510.3a.348.348,0,0,0-.34-.188.316.316,0,0,0-.268.218,1.078,1.078,0,0,0-.061.3,2.256,2.256,0,0,0,0,.317,2.068,2.068,0,0,1,0,.212,1.263,1.263,0,0,1-.1.446.693.693,0,0,1-.187.246.659.659,0,0,1-.27.121c-.123.026-.252.046-.389.062-1.055.112-2.12.218-3.165.313l-3.172.285c-.121.015-.249.023-.379.029a1.365,1.365,0,0,1-.345-.03.59.59,0,0,1-.254-.125.552.552,0,0,1-.152-.262c-.016-.068-.031-.152-.046-.254s-.038-.216-.063-.317a.888.888,0,0,0-.12-.286.329.329,0,0,0-.318-.143.322.322,0,0,0-.3.279,1.077,1.077,0,0,0-.014.291c.032.3.073.6.124.9.047.279.088.573.12.872.027.252.046.51.056.768s.03.534.057.789a.6.6,0,0,0,.055.189.252.252,0,0,0,.261.151.387.387,0,0,0,.3-.194.738.738,0,0,0,.1-.275,4.131,4.131,0,0,0,.026-.669.81.81,0,0,1,.054-.372.5.5,0,0,1,.279-.215,3.434,3.434,0,0,1,.85-.167q1.043-.112,1.839-.211c.53-.068,1.022-.126,1.475-.18s.9-.106,1.318-.16.873-.109,1.354-.159c.055-.006.111-.01.168-.013a3.136,3.136,0,0,1-.321.345c-.194.18-.374.36-.538.53l-2,2.13c-.544.577-.994,1.057-1.361,1.451l-.82.874-.437.467-.174.184c-.029.031-.046.05-.047.053q-.428.426-.844.858c-.276.285-.552.575-.821.861-.034.031-.074.07-.121.118s-.09.094-.133.14a.913.913,0,0,0-.117.165.313.313,0,0,0-.033.244.364.364,0,0,0,.378.277,2.51,2.51,0,0,0,.441-.026q1.324-.142,2.3-.24t1.755-.181m7.346,15.746c.507-.009,1.028-.029,1.547-.055.07,0,.175-.006.317-.015s.277-.014.421-.015.284,0,.411-.008a1.8,1.8,0,0,1,.238,0,.442.442,0,0,1,.258.131,1.951,1.951,0,0,1,.2.252,1.222,1.222,0,0,0,.213.247.331.331,0,0,0,.214.078.467.467,0,0,0,.192-.046.373.373,0,0,0,.18-.161.3.3,0,0,0,.011-.287,5.608,5.608,0,0,0-.287-.553,5.343,5.343,0,0,1-.273-.523,8.32,8.32,0,0,1-.31-.8,7.931,7.931,0,0,0-.323-.83.412.412,0,0,0-.218-.215.384.384,0,0,0-.314,0,.381.381,0,0,0-.22.459,4.536,4.536,0,0,0,.133.481,1.787,1.787,0,0,1,.092.444c0,.064-.013.14-.159.205a2.551,2.551,0,0,1-.5.078c-.3.034-.672.069-1.107.1s-.909.071-1.418.109-.993.069-1.453.1l-1.23.066c-.357.021-.6.032-.734.034h-.113a.962.962,0,0,1-.15-.014.383.383,0,0,1-.041-.007,4.032,4.032,0,0,1,.293-.355q.333-.369.822-.884t1.07-1.109c.387-.4.756-.772,1.107-1.126s.664-.669.939-.94.464-.453.568-.549c.019-.018.041-.037.064-.056a.15.15,0,0,1,.04-.027.121.121,0,0,1,.164.024,1.6,1.6,0,0,1,.222.325c.073.144.147.271.216.381a.318.318,0,0,0,.416.153.4.4,0,0,0,.224-.259.472.472,0,0,0-.022-.329c-.129-.287-.274-.573-.427-.846s-.289-.545-.416-.825a5.147,5.147,0,0,1-.221-.59,5.791,5.791,0,0,0-.236-.622l-.061-.135a.991.991,0,0,0-.181-.27.316.316,0,0,0-.376-.093.35.35,0,0,0-.219.389,3.93,3.93,0,0,0,.078.393,2.52,2.52,0,0,1,.064.424.473.473,0,0,1-.132.349c-.67.8-1.377,1.57-2.1,2.3s-1.456,1.468-2.186,2.21c-.381.4-.77.806-1.162,1.219s-.782.82-1.164,1.217a.789.789,0,0,0-.116.161.31.31,0,0,0-.014.293.294.294,0,0,0,.2.191.588.588,0,0,0,.176.006q1.321-.048,2.62-.118c.863-.046,1.736-.084,2.616-.118q.783-.027,1.549-.042M-116.09-466a1.324,1.324,0,0,1,.533-.169,1.564,1.564,0,0,1,.574.07,1.879,1.879,0,0,1,.561.283,1.367,1.367,0,0,1,.47.66,1.645,1.645,0,0,1,.037.953.92.92,0,0,1-.077.283c-.049.115-.1.226-.141.332a1.963,1.963,0,0,0-.1.315.294.294,0,0,0,.1.323.233.233,0,0,1,.042.042.568.568,0,0,0,.105.1.274.274,0,0,0,.206.049.5.5,0,0,0,.236-.141c.3-.358.594-.734.861-1.117.056-.077.127-.164.213-.26a3.651,3.651,0,0,0,.254-.315,1.882,1.882,0,0,0,.183-.3.27.27,0,0,0-.066-.357.511.511,0,0,0-.435-.1,1.424,1.424,0,0,0-.316.119.935.935,0,0,1-.179.073.136.136,0,0,1-.037-.052,4.563,4.563,0,0,0-.314-.607,1.8,1.8,0,0,0-.463-.533,3.772,3.772,0,0,0-1.079-.55,2.993,2.993,0,0,0-1.13-.14,2.647,2.647,0,0,0-1.073.328,2.845,2.845,0,0,0-.913.834,2.227,2.227,0,0,0-.466,1.269,3.775,3.775,0,0,0,.192,1.246,7.916,7.916,0,0,0,.516,1.213,10.627,10.627,0,0,1,.519,1.148,3.529,3.529,0,0,1,.231,1.08,1.491,1.491,0,0,1-.32.97,1.822,1.822,0,0,1-.525.5,1.58,1.58,0,0,1-.606.216,1.629,1.629,0,0,1-.645-.05,1.978,1.978,0,0,1-.633-.313,2.018,2.018,0,0,1-.644-.8,1.639,1.639,0,0,1-.12-1.02,1.488,1.488,0,0,1,.1-.32l.129-.316a1.664,1.664,0,0,0,.1-.313.3.3,0,0,0-.109-.322.208.208,0,0,1-.034-.035.531.531,0,0,0-.1-.1.286.286,0,0,0-.2-.055.382.382,0,0,0-.243.147c-.152.179-.287.345-.4.5s-.242.322-.379.512c-.056.077-.135.174-.238.293s-.207.252-.3.379a2.612,2.612,0,0,0-.223.357c-.119.235-.009.349.042.387a.536.536,0,0,0,.392.128.993.993,0,0,0,.29-.079,1.312,1.312,0,0,1,.211-.072.191.191,0,0,1,.124.045.745.745,0,0,1,.179.2l.212.33c.078.119.164.242.26.366a1.809,1.809,0,0,0,.379.366,4.491,4.491,0,0,0,1.2.606,3.089,3.089,0,0,0,.935.15,2.745,2.745,0,0,0,.275-.014,2.7,2.7,0,0,0,1.143-.388,3.5,3.5,0,0,0,1-.954,3.026,3.026,0,0,0,.518-1.3,2.781,2.781,0,0,0-.143-1.385,9.706,9.706,0,0,0-.523-1.106,11.7,11.7,0,0,1-.554-1.149,3.784,3.784,0,0,1-.282-1.1,1.309,1.309,0,0,1,.257-.921,1.422,1.422,0,0,1,.451-.414m9.611,4.863v0a.407.407,0,0,0,.044-.157.416.416,0,0,0,0-.167l-.018-.056-1.077-.592a3.852,3.852,0,0,0-.364-.176c-.12-.052-.234-.107-.339-.164-.22-.121-.442-.258-.659-.407a7.749,7.749,0,0,0-.683-.423l-.129-.071a1.926,1.926,0,0,0-.237-.107.28.28,0,0,0-.361.142.367.367,0,0,0,.009.431,1.164,1.164,0,0,0,.279.242c.1.066.205.14.308.222a.48.48,0,0,1,.166.235.736.736,0,0,1-.068.32,3.3,3.3,0,0,1-.2.435l-.124.224c-.107.2-.216.391-.328.584s-.227.4-.339.6l-2.416,4.369a3.974,3.974,0,0,1-.276.435.441.441,0,0,1-.247.2.622.622,0,0,1-.306-.013c-.131-.037-.252-.073-.369-.112a2.308,2.308,0,0,0-.337-.088.318.318,0,0,0-.348.156.335.335,0,0,0,.029.407.935.935,0,0,0,.246.2l.165.092a5.648,5.648,0,0,0,.679.317,5.105,5.105,0,0,1,.64.3,7.373,7.373,0,0,1,.628.391,6.981,6.981,0,0,0,.655.407,3.818,3.818,0,0,0,.371.18.4.4,0,0,0,.156.034.341.341,0,0,0,.3-.2.3.3,0,0,0-.078-.385,3.571,3.571,0,0,0-.276-.24c-.1-.08-.206-.166-.315-.258a.547.547,0,0,1-.174-.223.52.52,0,0,1,.027-.362,3.529,3.529,0,0,1,.2-.423l1.653-3.009q.407-.74.826-1.46t.829-1.467c.076-.139.145-.254.207-.35a.4.4,0,0,1,.174-.155.424.424,0,0,1,.253,0,2.272,2.272,0,0,1,.487.213,1.383,1.383,0,0,0,.345.136.34.34,0,0,0,.392-.2m83.105-22.169c-.223-.192-.4-.348-.536-.466l-.383-.338-.188-.165a.81.81,0,0,0-.135-.132c-.049-.045-.078-.068-.1-.084a.472.472,0,0,0-.231-.165.286.286,0,0,0-.35.176.475.475,0,0,0,.058.436c.076.14.166.293.274.46s.2.33.3.5a1.05,1.05,0,0,1,.147.426.736.736,0,0,1-.032.247,2.575,2.575,0,0,1-.113.331c-.05.119-.1.244-.164.371s-.116.242-.171.341l-.2.368c-.038.071-.1.186-.2.348s-.192.33-.3.5-.2.328-.308.472a1.169,1.169,0,0,1-.218.252.333.333,0,0,1-.228.06,1.091,1.091,0,0,1-.31-.06,2.1,2.1,0,0,1-.318-.128c-.108-.054-.2-.1-.289-.149l-1.869-1.015c-.033-.017-.09-.046-.176-.086a1.5,1.5,0,0,1-.214-.124,1.926,1.926,0,0,1-.19-.148,1.4,1.4,0,0,1,.052-.146c.026-.068.058-.139.09-.207l.1-.21c.029-.061.053-.111.074-.148.08-.151.172-.324.274-.521a3.461,3.461,0,0,1,.324-.515,1.355,1.355,0,0,1,.364-.342.418.418,0,0,1,.354-.045l.022.007.025,0a.589.589,0,0,1,.174.04c.1.034.2.066.307.1a1.509,1.509,0,0,0,.313.06.3.3,0,0,0,.315-.147.307.307,0,0,0,.019-.277.449.449,0,0,0-.152-.185,1.085,1.085,0,0,0-.2-.115c-.056-.026-.1-.048-.142-.07-.166-.091-.336-.176-.5-.257s-.328-.164-.492-.253-.325-.181-.482-.276-.33-.194-.5-.285a2.7,2.7,0,0,0-.268-.128.282.282,0,0,0-.377.142.308.308,0,0,0-.007.308,1.727,1.727,0,0,0,.1.163l.041.039a1.26,1.26,0,0,1,.435.439.671.671,0,0,1,.01.553,5.972,5.972,0,0,1-.292.662c-.116.221-.231.439-.346.651-.026.049-.057.111-.1.189a1.864,1.864,0,0,1-.11.2,1.064,1.064,0,0,1-.125.169.2.2,0,0,1-.055.045,1.188,1.188,0,0,1-.192-.087l-.273-.149c-.269-.144-.538-.289-.81-.431s-.538-.284-.805-.43c-.133-.071-.267-.149-.407-.236a1.347,1.347,0,0,1-.322-.265.587.587,0,0,1-.145-.293.618.618,0,0,1,.1-.381l.281-.522q.129-.234.278-.5c.1-.172.2-.336.3-.489a4.469,4.469,0,0,1,.3-.4,1.223,1.223,0,0,1,.234-.224.531.531,0,0,1,.344-.074,4.594,4.594,0,0,1,.47.053,4.317,4.317,0,0,0,.442.048.362.362,0,0,0,.383-.183l.007-.016c.053-.135-.014-.273-.2-.41a3.866,3.866,0,0,0-.443-.281c-.141-.077-.259-.142-.354-.2l-.255-.148a2.952,2.952,0,0,0-.5-.2.323.323,0,0,0-.348.139,1.934,1.934,0,0,0-.18.269l-.069.129q-.445.818-.853,1.616t-.851,1.609q-.222.412-.457.8t-.456.8c-.039.07-.086.154-.145.253a2.18,2.18,0,0,0-.156.317,1.187,1.187,0,0,0-.078.306.311.311,0,0,0,.167.321.345.345,0,0,0,.465-.121c.087-.112.182-.242.286-.387a1.351,1.351,0,0,1,.325-.321c.036-.023.14-.1.4.022a.52.52,0,0,1,.088.036l.317.172q.96.52,1.913,1.022t1.91,1.022c.2.107.432.229.7.364s.53.273.788.415a7.176,7.176,0,0,1,.665.4,1.061,1.061,0,0,1,.345.329.583.583,0,0,1,.05.349,3.171,3.171,0,0,1-.094.455c-.044.16-.078.3-.1.419a.317.317,0,0,0,.135.377.436.436,0,0,0,.2.06.291.291,0,0,0,.243-.134c.058-.086.11-.173.16-.265q.1-.18.182-.364c.052-.117.108-.227.166-.334l3.028-5.583a.517.517,0,0,0,.018-.507Zm-16.19,20.889-.449.29a1.617,1.617,0,0,1-.5.216.509.509,0,0,1-.454-.147,2.892,2.892,0,0,1-.294-.286c-.094-.108-.184-.215-.274-.322-.484-.617-1-1.233-1.515-1.83s-1.02-1.2-1.507-1.82l-1.024-1.285a2.133,2.133,0,0,1-.252-.355c-.05-.1-.05-.14-.037-.173.047-.032.1-.07.15-.113s.125-.108.207-.181.169-.148.271-.234q.2-.167.448-.34a5.089,5.089,0,0,1,.472-.3,1.462,1.462,0,0,1,.411-.165.391.391,0,0,1,.271.022.862.862,0,0,1,.277.247c.089.123.17.236.241.344a1.175,1.175,0,0,0,.239.277.3.3,0,0,0,.408-.022c.109-.09.21-.262.076-.578a4.313,4.313,0,0,0-.352-.647c-.148-.23-.3-.461-.467-.7a2.5,2.5,0,0,1-.316-.57h0a.606.606,0,0,0-.27-.318.4.4,0,0,0-.5.058.287.287,0,0,0-.089.277c.009.063.015.137.019.222a1.225,1.225,0,0,1-.017.246.359.359,0,0,1-.094.19,3.828,3.828,0,0,1-.285.276c-.1.092-.2.18-.308.263-.333.275-.65.543-.955.8s-.617.528-.949.8c-.413.341-.844.687-1.287,1.034s-.881.683-1.311,1a.483.483,0,0,1-.231.1.763.763,0,0,1-.2-.011c-.07-.016-.129-.031-.182-.046a.281.281,0,0,0-.259.048.519.519,0,0,0-.2.33.675.675,0,0,0,.039.33,1.309,1.309,0,0,0,.163.3l.179.26a6.545,6.545,0,0,1,.543.925,2.556,2.556,0,0,0,.325.575.385.385,0,0,0,.287.165.473.473,0,0,0,.285-.12c.087-.07.087-.205.06-.381-.021-.149-.05-.311-.089-.487s-.074-.339-.11-.5a1.156,1.156,0,0,1-.042-.281,1.271,1.271,0,0,1,.19-.557,1.921,1.921,0,0,1,.378-.418l.645-.53a3.534,3.534,0,0,1,.478-.336.707.707,0,0,1,.184-.08,1.8,1.8,0,0,1,.157.164c.079.089.133.15.16.183l4.14,5.028a3.959,3.959,0,0,1,.358.5.852.852,0,0,1,.125.366.629.629,0,0,1-.092.35,2.409,2.409,0,0,1-.385.486.846.846,0,0,1-.1.1.87.87,0,0,0-.2.238.342.342,0,0,0,.054.4.3.3,0,0,0,.231.126.286.286,0,0,0,.148-.046,2.158,2.158,0,0,0,.194-.14c.252-.208.5-.425.728-.645s.468-.429.715-.631c.274-.226.555-.444.838-.648s.581-.434.854-.661a2.077,2.077,0,0,0,.215-.195c.066-.076.109-.208-.069-.425-.055-.066-.213-.2-.489-.023m20.89-33.606c-.125-.05-.263-.1-.413-.147q-1.276-.383-2.214-.673t-1.687-.515l-2.667-.8c-.085-.025-.215-.068-.394-.125s-.36-.124-.546-.192a4.09,4.09,0,0,1-.51-.229.863.863,0,0,1-.273-.194.339.339,0,0,1-.033-.239c.019-.14.042-.281.071-.419a2.245,2.245,0,0,0,.049-.412.346.346,0,0,0-.253-.361c-.084-.025-.365-.078-.483.314-.068.226-.129.455-.186.69s-.117.453-.182.674c-.082.269-.173.542-.273.809s-.194.55-.277.826a.615.615,0,0,0-.017.274.327.327,0,0,0,.246.253.36.36,0,0,0,.468-.221c.063-.142.123-.3.181-.481a1.9,1.9,0,0,1,.212-.444.308.308,0,0,1,.317-.133,1.784,1.784,0,0,1,.322.052c.112.029.227.062.346.1q1,.3,2.011.6c.671.2,1.339.4,2.008.613l1.566.471a.468.468,0,0,1,.094.033q-1.525.653-2.671,1.154-1.19.522-2.14.944t-1.735.77c-.523.231-1.042.456-1.574.682a3.616,3.616,0,0,1-.491.244c-.142.054-.265.108-.369.159a.948.948,0,0,0-.285.211,1.034,1.034,0,0,0-.2.393c-.045.148-.084.292-.116.432s-.068.27-.11.412c-.057.187-.116.368-.179.544s-.124.365-.182.557a.711.711,0,0,0-.007.308.344.344,0,0,0,.239.3.311.311,0,0,0,.33-.1,1.032,1.032,0,0,0,.174-.254,2.04,2.04,0,0,0,.126-.292c.031-.086.057-.151.079-.2a1.238,1.238,0,0,1,.26-.373.7.7,0,0,1,.268-.153.624.624,0,0,1,.3-.008,3.911,3.911,0,0,1,.385.1c1.02.307,2.042.625,3.036.944l3.035.97c.117.035.236.077.36.121a1.382,1.382,0,0,1,.306.163.581.581,0,0,1,.186.214.527.527,0,0,1,.038.3c-.011.07-.03.152-.055.253s-.05.214-.068.317a.9.9,0,0,0,0,.309.324.324,0,0,0,.236.257.437.437,0,0,0,.111.017.317.317,0,0,0,.273-.158,1.033,1.033,0,0,0,.127-.262c.087-.289.167-.584.237-.88s.142-.567.228-.85c.074-.248.158-.494.247-.729s.179-.5.254-.749a.609.609,0,0,0,.023-.2.248.248,0,0,0-.182-.24.381.381,0,0,0-.355.058.786.786,0,0,0-.2.216,4.347,4.347,0,0,0-.283.606.783.783,0,0,1-.2.321.486.486,0,0,1-.341.092,3.532,3.532,0,0,1-.847-.176c-.669-.2-1.263-.377-1.777-.522s-.989-.281-1.428-.409-.865-.25-1.276-.364-.845-.239-1.309-.381a1.336,1.336,0,0,1-.159-.053,2.94,2.94,0,0,1,.428-.192c.258-.094.488-.185.7-.281l2.675-1.182q1.087-.479,1.8-.8l1.112-.494.591-.263c.119-.054.2-.087.226-.1a.481.481,0,0,0,.063-.03q.562-.225,1.112-.462c.366-.157.733-.315,1.091-.474q.065-.024.158-.062c.061-.025.119-.05.176-.078a.853.853,0,0,0,.173-.107.309.309,0,0,0,.125-.212.367.367,0,0,0-.243-.4m-12.2,22.145a5.345,5.345,0,0,0-.847-.963c-.323-.293-.641-.566-.944-.811-.191-.153-.38-.3-.573-.453s-.379-.3-.566-.452c-.208-.169-.455-.367-.736-.589s-.549-.439-.8-.65-.464-.4-.633-.575a.964.964,0,0,1-.2-.251.615.615,0,0,1,.093-.191c.07-.116.139-.24.207-.377a1.78,1.78,0,0,0,.15-.405.392.392,0,0,0-.125-.412.358.358,0,0,0-.44.009l-.038.032c-.153.19-.3.385-.447.583s-.286.384-.437.571-.3.354-.459.522-.324.357-.473.541a.876.876,0,0,0-.128.207.285.285,0,0,0,.109.342.411.411,0,0,0,.425.088,1.1,1.1,0,0,0,.322-.2c.094-.08.189-.165.285-.252a.424.424,0,0,1,.224-.119.507.507,0,0,1,.313.105,4.861,4.861,0,0,1,.517.368c.187.153.377.314.573.483s.377.323.538.455l2.236,1.814a3.611,3.611,0,0,1,.538.536,4.619,4.619,0,0,1,.66.956,2.1,2.1,0,0,1,.224.854,1.9,1.9,0,0,1-.184.851,4.559,4.559,0,0,1-.623.963,4.066,4.066,0,0,1-.73.715,1.768,1.768,0,0,1-.784.334,2.034,2.034,0,0,1-.94-.1,4.49,4.49,0,0,1-1.191-.643c-.226-.158-.448-.324-.664-.495s-.435-.344-.649-.518l-1.923-1.561c-.1-.084-.212-.175-.328-.274s-.22-.2-.321-.3-.19-.189-.268-.276a.968.968,0,0,1-.144-.191.334.334,0,0,1-.015-.3,3.813,3.813,0,0,1,.194-.4,3.791,3.791,0,0,0,.191-.392.372.372,0,0,0-.116-.459.307.307,0,0,0-.421.018,1.669,1.669,0,0,0-.207.21c-.2.249-.389.5-.557.75s-.347.49-.543.731c-.175.218-.364.429-.56.629a8.559,8.559,0,0,0-.578.648.414.414,0,0,0-.109.307.394.394,0,0,0,.157.263.309.309,0,0,0,.29.063.576.576,0,0,0,.222-.116,1.725,1.725,0,0,0,.161-.153c.049-.053.088-.1.118-.134l.093-.115a.409.409,0,0,1,.274-.174.719.719,0,0,1,.337.06,1.593,1.593,0,0,1,.362.212c.126.1.238.186.336.265.584.474,1.169.96,1.736,1.443s1.142.962,1.74,1.448l.387.315c.065.052.131.1.2.151s.135.1.2.14a3.248,3.248,0,0,0,1.308.534,2.911,2.911,0,0,0,.383.028,2.557,2.557,0,0,0,.819-.133,3.373,3.373,0,0,0,1.081-.606,6.64,6.64,0,0,0,.943-.954,8.473,8.473,0,0,0,.689-.991,5.621,5.621,0,0,0,.517-1.13,2.361,2.361,0,0,0,.065-1.31,3.53,3.53,0,0,0-.51-1.118m5.195-42.854a1.427,1.427,0,0,1-.613-.038,1.31,1.31,0,0,1-.49-.268,1.531,1.531,0,0,1-.349-.46,1.946,1.946,0,0,1-.184-.6,1.371,1.371,0,0,1,.149-.8,1.662,1.662,0,0,1,.661-.687.961.961,0,0,1,.257-.141l.338-.128a1.709,1.709,0,0,0,.3-.146.291.291,0,0,0,.168-.292.178.178,0,0,1,0-.057.562.562,0,0,0,0-.145.275.275,0,0,0-.109-.182.478.478,0,0,0-.265-.073c-.471.03-.944.082-1.4.155-.094.014-.206.022-.336.028s-.274.017-.4.033a2.006,2.006,0,0,0-.345.079.266.266,0,0,0-.211.293.516.516,0,0,0,.228.386,1.544,1.544,0,0,0,.306.144,1.028,1.028,0,0,1,.179.078.13.13,0,0,1-.014.062,4.619,4.619,0,0,0-.218.647,1.777,1.777,0,0,0-.063.7,3.706,3.706,0,0,0,.353,1.157,2.958,2.958,0,0,0,.683.912,2.618,2.618,0,0,0,.981.545,2.629,2.629,0,0,0,.776.112,3.16,3.16,0,0,0,.457-.033,2.211,2.211,0,0,0,1.236-.544,3.8,3.8,0,0,0,.765-1,7.969,7.969,0,0,0,.515-1.214,10.941,10.941,0,0,1,.466-1.172,3.539,3.539,0,0,1,.617-.914,1.484,1.484,0,0,1,.921-.442,1.811,1.811,0,0,1,.723.029,1.567,1.567,0,0,1,.576.287,1.606,1.606,0,0,1,.412.5,1.958,1.958,0,0,1,.213.674,2,2,0,0,1-.131,1.02,1.639,1.639,0,0,1-.652.793,1.316,1.316,0,0,1-.276.143c-.119.048-.232.094-.339.135a1.662,1.662,0,0,0-.293.146.3.3,0,0,0-.156.3.238.238,0,0,1,0,.048.484.484,0,0,0,0,.141.3.3,0,0,0,.1.182.366.366,0,0,0,.271.072c.236-.014.448-.032.638-.053s.4-.049.631-.081c.1-.014.22-.024.378-.033s.325-.024.481-.046a2.812,2.812,0,0,0,.411-.087c.252-.078.259-.235.25-.3a.561.561,0,0,0-.179-.372,1.084,1.084,0,0,0-.259-.152,1.21,1.21,0,0,1-.2-.1.166.166,0,0,1-.053-.12.71.71,0,0,1,.018-.268c.03-.119.06-.246.092-.383s.06-.286.082-.442a1.762,1.762,0,0,0,0-.527,4.488,4.488,0,0,0-.4-1.285,3.014,3.014,0,0,0-.741-.967,2.712,2.712,0,0,0-1.073-.552,3.447,3.447,0,0,0-1.378-.058,3.047,3.047,0,0,0-1.3.53,2.777,2.777,0,0,0-.9,1.064,9.363,9.363,0,0,0-.433,1.144,11.656,11.656,0,0,1-.444,1.2,3.75,3.75,0,0,1-.6.968,1.3,1.3,0,0,1-.838.455m7.723,11.046a2.694,2.694,0,0,0-.907-.8,3.462,3.462,0,0,0-1.323-.388,3.009,3.009,0,0,0-1.385.2,2.771,2.771,0,0,0-1.128.815,8.97,8.97,0,0,0-.7,1,11.671,11.671,0,0,1-.721,1.052,3.7,3.7,0,0,1-.814.794,1.3,1.3,0,0,1-.924.238,1.433,1.433,0,0,1-.584-.184,1.267,1.267,0,0,1-.411-.378,1.505,1.505,0,0,1-.227-.532,1.907,1.907,0,0,1-.034-.628,1.358,1.358,0,0,1,.338-.734,1.645,1.645,0,0,1,.807-.509.885.885,0,0,1,.283-.073l.358-.045a1.733,1.733,0,0,0,.324-.069c.178-.057.224-.163.232-.242a.3.3,0,0,1,.015-.058.538.538,0,0,0,.032-.14.266.266,0,0,0-.061-.2.491.491,0,0,0-.238-.134c-.464-.085-.936-.149-1.4-.19a3.013,3.013,0,0,1-.332-.055c-.137-.028-.27-.049-.4-.063a1.778,1.778,0,0,0-.353-.007.267.267,0,0,0-.276.232.51.51,0,0,0,.128.43,1.405,1.405,0,0,0,.261.214.985.985,0,0,1,.153.119.132.132,0,0,1-.027.057,4.507,4.507,0,0,0-.368.575,1.752,1.752,0,0,0-.231.666,3.756,3.756,0,0,0,.062,1.208,2.968,2.968,0,0,0,.442,1.049,2.617,2.617,0,0,0,.819.768,2.863,2.863,0,0,0,1.18.376,2.235,2.235,0,0,0,1.33-.229,3.828,3.828,0,0,0,.985-.789,7.914,7.914,0,0,0,.795-1.052,10.077,10.077,0,0,1,.735-1.023,3.488,3.488,0,0,1,.82-.74,1.51,1.51,0,0,1,1-.206,1.846,1.846,0,0,1,.7.205,1.555,1.555,0,0,1,.489.417,1.628,1.628,0,0,1,.279.583,1.966,1.966,0,0,1,.044.705,2,2,0,0,1-.373.96,1.651,1.651,0,0,1-.823.612,1.613,1.613,0,0,1-.3.072c-.128.017-.247.034-.362.048a1.629,1.629,0,0,0-.321.071.3.3,0,0,0-.224.255.2.2,0,0,1-.014.048.526.526,0,0,0-.032.136.288.288,0,0,0,.053.2.367.367,0,0,0,.246.139c.232.042.443.076.632.1s.4.048.632.073c.1.009.22.031.374.06s.322.055.478.072c.119.011.223.019.318.019.036,0,.07,0,.1,0,.263-.015.308-.166.315-.23a.563.563,0,0,0-.084-.405.974.974,0,0,0-.213-.21,1.57,1.57,0,0,1-.167-.147.178.178,0,0,1-.024-.131.675.675,0,0,1,.086-.254c.056-.108.116-.223.179-.349s.128-.263.189-.409a1.807,1.807,0,0,0,.128-.511,4.448,4.448,0,0,0-.074-1.343,2.988,2.988,0,0,0-.486-1.117m-127.8-8.918a3.548,3.548,0,0,0,1.032.669,5.48,5.48,0,0,0,1.232.356c.445.074.85.132,1.232.175q.364.041.726.077t.72.076q.4.045.938.1c.356.037.7.075,1.026.118s.609.089.843.142a1,1,0,0,1,.308.1.693.693,0,0,1,.024.21c0,.136.011.279.027.428a1.748,1.748,0,0,0,.092.424.393.393,0,0,0,.328.279h.036a.365.365,0,0,0,.33-.244l.015-.047q.041-.364.063-.732c.015-.24.036-.479.062-.717s.061-.457.105-.688.08-.472.109-.708a.973.973,0,0,0,0-.245.281.281,0,0,0-.275-.23.416.416,0,0,0-.407.155,1.132,1.132,0,0,0-.164.338c-.037.12-.072.243-.1.366a.42.42,0,0,1-.126.222.508.508,0,0,1-.321.079,4.74,4.74,0,0,1-.633-.033c-.239-.027-.487-.06-.742-.1s-.492-.07-.7-.094l-2.86-.326a3.713,3.713,0,0,1-.742-.164,4.629,4.629,0,0,1-1.071-.449,2.122,2.122,0,0,1-.649-.6,1.916,1.916,0,0,1-.3-.818,4.592,4.592,0,0,1,.008-1.148,4.037,4.037,0,0,1,.23-.994,1.774,1.774,0,0,1,.481-.7,2.033,2.033,0,0,1,.846-.42,4.53,4.53,0,0,1,1.351-.1c.275.014.55.033.826.061s.551.056.827.088l2.459.281c.133.016.274.033.424.056s.291.046.429.074.262.058.373.088a1.162,1.162,0,0,1,.226.084.344.344,0,0,1,.176.25,3.63,3.63,0,0,1,.053.443c.011.165.027.307.049.434a.375.375,0,0,0,.346.325.311.311,0,0,0,.345-.244,1.839,1.839,0,0,0,.063-.286c.034-.314.056-.626.065-.933s.027-.6.063-.908c.032-.277.077-.557.135-.83s.107-.573.14-.858a.424.424,0,0,0-.069-.31.4.4,0,0,0-.282-.146.315.315,0,0,0-.276.1.586.586,0,0,0-.125.22,1.914,1.914,0,0,0-.054.215c-.014.071-.023.128-.027.175l-.017.147a.4.4,0,0,1-.137.293.714.714,0,0,1-.315.134,1.8,1.8,0,0,1-.419.014c-.159-.014-.3-.028-.425-.041-.766-.089-1.521-.184-2.239-.284s-1.479-.2-2.247-.284l-.495-.056c-.082-.01-.166-.017-.247-.022s-.168-.007-.251-.007a3.088,3.088,0,0,0-1.389.253,2.653,2.653,0,0,0-.957.735,3.416,3.416,0,0,0-.584,1.091,6.567,6.567,0,0,0-.282,1.311,8.53,8.53,0,0,0-.048,1.207,5.7,5.7,0,0,0,.172,1.23,2.379,2.379,0,0,0,.649,1.14m128.514,3.987a4.9,4.9,0,0,1-.058-.706c0-.244.007-.494.029-.739a7.479,7.479,0,0,0,.029-.77,4.044,4.044,0,0,0-.027-.411.338.338,0,0,0-.36-.317h-.009a.3.3,0,0,0-.3.256,3.511,3.511,0,0,0-.071.36c-.021.129-.044.263-.068.4a.533.533,0,0,1-.108.262.507.507,0,0,1-.329.155,3.408,3.408,0,0,1-.466.041l-3.43.056c-.565.008-1.125.009-1.679.007s-1.119,0-1.686.007c-.156,0-.291,0-.405-.007a.389.389,0,0,1-.221-.074.4.4,0,0,1-.128-.218,2.24,2.24,0,0,1-.056-.527,1.409,1.409,0,0,0-.053-.369.338.338,0,0,0-.36-.238h-.011a.435.435,0,0,0-.159.039.439.439,0,0,0-.141.087l-.041.042.021,1.23a3.856,3.856,0,0,0,.026.405,3.572,3.572,0,0,1,.026.374,7.7,7.7,0,0,1-.027.774,7.888,7.888,0,0,0-.027.8l0,.148a1.667,1.667,0,0,0,.025.258.278.278,0,0,0,.293.243H-27a.367.367,0,0,0,.37-.221,1.121,1.121,0,0,0,.071-.362c.008-.122.021-.249.04-.377a.484.484,0,0,1,.123-.262.747.747,0,0,1,.31-.1,3.491,3.491,0,0,1,.476-.046l.255,0c.222,0,.446,0,.669,0s.456,0,.689,0l4.71-.063.282-.006a4.8,4.8,0,0,1,.514.026.424.424,0,0,1,.3.117.585.585,0,0,1,.14.27c.033.131.062.258.085.376a2.572,2.572,0,0,0,.093.337.315.315,0,0,0,.3.224h.006a.336.336,0,0,0,.339-.227.93.93,0,0,0,.052-.314l0-.188a5.323,5.323,0,0,0-.061-.745M-94.14-452.194c-.3-.054-.53-.1-.679-.125l-.147-.03.52-.779q.253-.378.45-.683c.131-.2.259-.4.387-.586.08-.119.169-.251.269-.4q.005.031.01.065l.119.825c.047.325.1.672.155,1.046.047.312.093.61.139.894-.523-.1-.93-.179-1.223-.231m4.728,5.533a3.867,3.867,0,0,0-.365-.163,2.733,2.733,0,0,1-.385-.192.473.473,0,0,1-.207-.309c-.265-1.01-.51-2.037-.732-3.058s-.424-2.049-.606-3.076l-.024-.127q-.146-.751-.3-1.524-.165-.843-.323-1.654a.822.822,0,0,0-.062-.189.312.312,0,0,0-.234-.179.289.289,0,0,0-.274.056.574.574,0,0,0-.105.139q-.722,1.106-1.443,2.2t-1.443,2.2l-.847,1.293c-.281.427-.559.861-.835,1.3-.039.058-.1.147-.171.266s-.149.236-.231.354-.16.236-.237.344a1.119,1.119,0,0,1-.151.191.407.407,0,0,1-.243.14,2.989,2.989,0,0,1-.313.016,1.068,1.068,0,0,0-.315.034.364.364,0,0,0-.251.314.39.39,0,0,0,.027.239.306.306,0,0,0,.229.176,4.479,4.479,0,0,0,.574.076,4.355,4.355,0,0,1,.536.072,7.975,7.975,0,0,1,.835.211,8.622,8.622,0,0,0,.863.215.4.4,0,0,0,.3-.055.371.371,0,0,0,.179-.257.381.381,0,0,0-.247-.444,4.188,4.188,0,0,0-.468-.169,1.748,1.748,0,0,1-.416-.182c-.055-.033-.107-.09-.076-.248a2.039,2.039,0,0,1,.144-.316c.1-.19.221-.424.376-.7s.333-.583.541-.923c.19-.31.4-.629.613-.949a2.615,2.615,0,0,1,.342.031c.171.025.344.053.518.086s.36.073.529.11.311.069.418.089l.251.049c.147.029.286.062.42.1a.375.375,0,0,1,.21.124.486.486,0,0,1,.03.1c.017.08.04.169.065.258l.2,1q.1.486.169.881l.126.689c.034.189.056.33.066.426,0,.024.006.054.009.082a.351.351,0,0,1,0,.05c-.022.11-.065.121-.112.125a1.892,1.892,0,0,1-.4-.014c-.161-.022-.306-.036-.437-.042a.312.312,0,0,0-.365.251.4.4,0,0,0,.082.332.465.465,0,0,0,.281.173c.313.06.629.108.938.141s.608.078.914.137a5.369,5.369,0,0,1,.608.157,5.259,5.259,0,0,0,.644.168l.145.029a.968.968,0,0,0,.183.018,1.2,1.2,0,0,0,.143-.01.315.315,0,0,0,.292-.252.354.354,0,0,0-.192-.4m-9.393-10.589a1.455,1.455,0,0,1,.349.275.389.389,0,0,1,.117.245.859.859,0,0,1-.076.364c-.063.139-.121.266-.179.38a1.231,1.231,0,0,0-.12.347.3.3,0,0,0,.222.341c.128.05.332.052.541-.223a4.552,4.552,0,0,0,.384-.629c.125-.242.249-.492.369-.75a2.439,2.439,0,0,1,.338-.559h0a.615.615,0,0,0,.142-.394.407.407,0,0,0-.3-.4.282.282,0,0,0-.283.061c-.052.039-.111.081-.184.127a.965.965,0,0,1-.22.11.367.367,0,0,1-.212.013,3.4,3.4,0,0,1-.383-.108q-.2-.065-.381-.137-.606-.227-1.173-.425c-.377-.132-.765-.273-1.168-.424q-.754-.283-1.539-.6t-1.522-.636a.476.476,0,0,1-.2-.15.746.746,0,0,1-.093-.183c-.021-.069-.037-.126-.05-.18a.281.281,0,0,0-.172-.2.517.517,0,0,0-.387-.01.692.692,0,0,0-.266.2,1.305,1.305,0,0,0-.183.293l-.135.284a6.347,6.347,0,0,1-.531.931,2.429,2.429,0,0,0-.333.569.378.378,0,0,0,0,.337.473.473,0,0,0,.243.183c.108.04.216-.024.363-.14q.177-.139.377-.32l.373-.342a1.13,1.13,0,0,1,.222-.177,1.291,1.291,0,0,1,.578-.115,1.961,1.961,0,0,1,.551.12l.78.293a3.479,3.479,0,0,1,.53.246.667.667,0,0,1,.16.121h0a1.655,1.655,0,0,1-.063.216c-.038.112-.064.19-.079.231l-2.289,6.1a4.236,4.236,0,0,1-.25.559.853.853,0,0,1-.255.292.654.654,0,0,1-.349.1,2.507,2.507,0,0,1-.613-.094.6.6,0,0,1-.135-.04.858.858,0,0,0-.3-.055h-.006a.338.338,0,0,0-.318.245.272.272,0,0,0,.119.37,2.1,2.1,0,0,0,.218.1c.307.115.617.219.922.309s.6.191.9.3c.333.125.663.26.983.4s.659.284,1,.411a2.3,2.3,0,0,0,.276.088.246.246,0,0,0,.052.006c.09,0,.2-.056.283-.277.029-.081.069-.286-.223-.436l-.476-.244a1.6,1.6,0,0,1-.435-.321.5.5,0,0,1-.1-.467,2.866,2.866,0,0,1,.1-.4c.046-.134.094-.268.142-.4.294-.732.573-1.482.828-2.226s.531-1.484.825-2.214l.6-1.53a2.218,2.218,0,0,1,.18-.4c.06-.092.1-.112.132-.118.054.025.111.05.174.073s.156.055.26.089.213.073.337.12q.249.093.52.216a4.965,4.965,0,0,1,.5.257m46.951-2.52a1.983,1.983,0,0,1-.507.64,5.294,5.294,0,0,1-.807.566.953.953,0,0,1-.284.127.08.08,0,0,1-.077-.01.461.461,0,0,1-.105-.147c-.046-.086-.1-.187-.169-.306-.181-.31-.378-.661-.6-1.054s-.416-.746-.6-1.056l-.229-.4a.585.585,0,0,1-.1-.4c.011-.058.077-.183.383-.362a2.776,2.776,0,0,1,.82-.32,2.125,2.125,0,0,1,.394-.039,1.882,1.882,0,0,1,.379.039,1.848,1.848,0,0,1,.7.324,2.232,2.232,0,0,1,.585.683,2.372,2.372,0,0,1,.342.953,1.457,1.457,0,0,1-.128.756m6.737,2.71a1.679,1.679,0,0,1-.314.065,2,2,0,0,1-1.041.057,4.678,4.678,0,0,1-1.089-.371,8.767,8.767,0,0,1-1.074-.61q-.531-.352-1-.67a7.741,7.741,0,0,0-.89-.522,1.728,1.728,0,0,0-.487-.164c.1-.152.191-.316.278-.488a3.748,3.748,0,0,0,.307-.809,2.7,2.7,0,0,0,.079-.857,1.955,1.955,0,0,0-.263-.846,2.725,2.725,0,0,0-.964-1.033,2.611,2.611,0,0,0-1.109-.352,2.905,2.905,0,0,0-1.089.124,4.56,4.56,0,0,0-.913.394q-.445.258-.885.536c-.291.183-.582.362-.875.531l-1.014.586c-.081.046-.168.092-.258.134s-.19.1-.279.145a1.5,1.5,0,0,0-.26.195.331.331,0,0,0-.037.439.3.3,0,0,0,.322.156,1.123,1.123,0,0,0,.3-.105c.1-.047.211-.1.324-.155a1.206,1.206,0,0,1,.308-.1.44.44,0,0,1,.261.032.574.574,0,0,1,.236.247q.572.989,1.12,1.975t1.126,1.98l1.389,2.4a.65.65,0,0,1,.11.357.62.62,0,0,1-.09.3,1.01,1.01,0,0,1-.213.254c-.1.081-.189.158-.277.229a2.188,2.188,0,0,0-.222.205.268.268,0,0,0-.047.333c.066.115.151.232.275.235h.009a.6.6,0,0,0,.283-.1,8.234,8.234,0,0,0,.708-.458c.221-.158.451-.307.684-.441.268-.156.55-.3.838-.433s.591-.286.875-.45a1.614,1.614,0,0,0,.362-.265.344.344,0,0,0,.019-.435.263.263,0,0,0-.307-.134.823.823,0,0,0-.224.092l-.042.023-.032.008c-.178.061-.334.119-.471.176a.953.953,0,0,1-.324.081.385.385,0,0,1-.253-.077,1.063,1.063,0,0,1-.293-.363l-1.389-2.4a.866.866,0,0,1-.144-.331s.014-.05.159-.135a1.18,1.18,0,0,1,.739-.18,2.294,2.294,0,0,1,.76.226,4.818,4.818,0,0,1,.776.48c.266.2.543.388.807.552a4.9,4.9,0,0,0,1.968.975A3.827,3.827,0,0,0-45.655-456c.061-.025.133-.056.218-.1a2.735,2.735,0,0,0,.252-.129,1.617,1.617,0,0,0,.431-.321l.029-.055a.444.444,0,0,0-.011-.344.294.294,0,0,0-.379-.121m-38.041,6.04a9.565,9.565,0,0,0-1.043-.64,11.641,11.641,0,0,1-1.093-.657,3.767,3.767,0,0,1-.838-.767,1.314,1.314,0,0,1-.291-.912,1.444,1.444,0,0,1,.15-.592,1.289,1.289,0,0,1,.355-.432,1.546,1.546,0,0,1,.518-.258,1.938,1.938,0,0,1,.624-.07,1.364,1.364,0,0,1,.754.3,1.64,1.64,0,0,1,.552.775.881.881,0,0,1,.092.279c.022.123.042.242.064.355a1.783,1.783,0,0,0,.087.318.294.294,0,0,0,.253.22.25.25,0,0,1,.06.011.618.618,0,0,0,.143.025.319.319,0,0,0,.2-.073.482.482,0,0,0,.12-.246c.058-.465.1-.94.109-1.406.006-.094.018-.205.037-.333a3.977,3.977,0,0,0,.04-.4,1.811,1.811,0,0,0-.013-.354.266.266,0,0,0-.249-.261.524.524,0,0,0-.42.152,1.409,1.409,0,0,0-.2.273,1.116,1.116,0,0,1-.109.159.131.131,0,0,1-.06-.023,4.723,4.723,0,0,0-.6-.334,1.748,1.748,0,0,0-.68-.192,3.705,3.705,0,0,0-1.2.129,3.006,3.006,0,0,0-1.023.5,2.6,2.6,0,0,0-.719.862,2.86,2.86,0,0,0-.308,1.2,2.22,2.22,0,0,0,.306,1.317,3.792,3.792,0,0,0,.843.937,7.746,7.746,0,0,0,1.1.732,10.553,10.553,0,0,1,1.063.677,3.5,3.5,0,0,1,.784.775,1.513,1.513,0,0,1,.263.988,1.811,1.811,0,0,1-.164.7,1.565,1.565,0,0,1-.388.512,1.623,1.623,0,0,1-.567.313,1.967,1.967,0,0,1-.7.084,1.98,1.98,0,0,1-.978-.318,1.612,1.612,0,0,1-.658-.786,1.486,1.486,0,0,1-.089-.3l-.07-.36a1.689,1.689,0,0,0-.088-.315.3.3,0,0,0-.269-.21.151.151,0,0,1-.046-.01.532.532,0,0,0-.14-.026.314.314,0,0,0-.2.065.376.376,0,0,0-.123.253c-.031.236-.052.448-.064.639s-.027.4-.039.633c-.006.1-.017.222-.038.378s-.037.325-.045.481a2.917,2.917,0,0,0,.008.42c.029.263.183.3.25.3h.047a.529.529,0,0,0,.352-.108,1.094,1.094,0,0,0,.2-.224,1.288,1.288,0,0,1,.135-.175.17.17,0,0,1,.128-.031.723.723,0,0,1,.26.07c.11.049.229.1.358.159s.269.112.42.165a1.785,1.785,0,0,0,.516.1,4.41,4.41,0,0,0,1.335-.151,3.019,3.019,0,0,0,1.088-.549,2.693,2.693,0,0,0,.742-.953A3.425,3.425,0,0,0-82-448.57a3.021,3.021,0,0,0-.279-1.37,2.775,2.775,0,0,0-.878-1.081m21.346-3.435q-.429.17-.645.249l-.139.053.036-.937c.011-.3.019-.575.025-.817s.014-.474.024-.7c.007-.142.014-.3.024-.479a.551.551,0,0,0,.042.05c.147.175.324.387.533.639s.435.524.677.811q.3.364.586.692c-.5.186-.885.334-1.164.441m6.926,2.244c-.117.008-.249.026-.4.052a2.523,2.523,0,0,1-.429.038h0a.471.471,0,0,1-.333-.156c-.759-.726-1.507-1.474-2.222-2.222s-1.432-1.522-2.126-2.305c-.373-.405-.752-.82-1.14-1.239s-.766-.835-1.138-1.24a.772.772,0,0,0-.152-.128.321.321,0,0,0-.293-.032.3.3,0,0,0-.205.192.565.565,0,0,0-.015.174q-.04,1.319-.08,2.628c-.029.873-.054,1.749-.08,2.631l-.046,1.546q-.024.764-.033,1.54c0,.07-.006.175-.007.317s0,.277-.011.421l-.023.417a1.251,1.251,0,0,1-.027.24.41.41,0,0,1-.136.247,2.332,2.332,0,0,1-.257.176,1.107,1.107,0,0,0-.251.195.365.365,0,0,0-.05.4h0a.4.4,0,0,0,.149.189.294.294,0,0,0,.167.052.324.324,0,0,0,.12-.023,4.449,4.449,0,0,0,.528-.235,4.006,4.006,0,0,1,.495-.219,7.845,7.845,0,0,1,.82-.258,8.849,8.849,0,0,0,.851-.267.42.42,0,0,0,.228-.2.383.383,0,0,0,.018-.313.383.383,0,0,0-.443-.25,4.348,4.348,0,0,0-.489.1,1.788,1.788,0,0,1-.449.062c-.064,0-.139-.021-.195-.171a2.013,2.013,0,0,1-.042-.347c-.017-.211-.033-.476-.047-.795s-.023-.685-.023-1.07.009-.751.025-1.129a2.865,2.865,0,0,1,.309-.154c.158-.069.321-.134.486-.2s.345-.127.508-.184.3-.105.4-.142l.241-.09c.139-.052.275-.1.41-.133a.4.4,0,0,1,.245,0,.7.7,0,0,1,.079.073c.056.058.121.123.189.184l.7.746c.223.242.426.462.606.662l.466.521c.128.143.221.251.279.328.016.022.033.042.052.068a.18.18,0,0,1,.024.042c.042.113,0,.144-.029.165a1.786,1.786,0,0,1-.346.2c-.148.065-.278.129-.394.192a.317.317,0,0,0-.181.4.4.4,0,0,0,.244.241.474.474,0,0,0,.33,0c.3-.11.589-.236.873-.37s.561-.253.851-.361a5.179,5.179,0,0,1,.6-.183,5.352,5.352,0,0,0,.637-.194l.137-.053a1.012,1.012,0,0,0,.283-.163.318.318,0,0,0,.118-.369.357.357,0,0,0-.373-.244m-11.746-4.726a2.5,2.5,0,0,1-.008-.652h0a.609.609,0,0,0-.087-.41.407.407,0,0,0-.468-.183.28.28,0,0,0-.208.2c-.023.06-.053.129-.089.206a1.19,1.19,0,0,1-.128.207.386.386,0,0,1-.174.125,3.771,3.771,0,0,1-.383.108c-.134.032-.267.06-.4.087q-.636.125-1.222.255c-.389.087-.794.171-1.215.254-.527.105-1.067.205-1.624.3s-1.1.184-1.629.262a.5.5,0,0,1-.252-.019.709.709,0,0,1-.175-.108c-.054-.046-.1-.087-.139-.126a.274.274,0,0,0-.25-.079.51.51,0,0,0-.336.195.686.686,0,0,0-.123.308,1.455,1.455,0,0,0,0,.346c.014.111.024.215.035.314a6.583,6.583,0,0,1,.038,1.071,2.58,2.58,0,0,0,.017.66.377.377,0,0,0,.179.284.44.44,0,0,0,.3.026c.109-.021.169-.134.234-.308q.077-.211.151-.471t.137-.488a1.069,1.069,0,0,1,.1-.267,1.275,1.275,0,0,1,.431-.4,2.011,2.011,0,0,1,.531-.189l.819-.163a3.781,3.781,0,0,1,.578-.069h.037a.768.768,0,0,1,.164.018,1.862,1.862,0,0,1,.061.218q.041.174.055.237L-70.4-448.8a3.973,3.973,0,0,1,.08.606.835.835,0,0,1-.063.383.632.632,0,0,1-.246.265,2.356,2.356,0,0,1-.571.246.573.573,0,0,1-.135.036.894.894,0,0,0-.291.116.337.337,0,0,0-.141.377.273.273,0,0,0,.274.252h.023a1.9,1.9,0,0,0,.235-.032c.318-.064.637-.139.948-.223s.612-.156.926-.218c.35-.069.7-.128,1.047-.173.36-.049.718-.109,1.065-.179a2.124,2.124,0,0,0,.281-.069c.094-.034.2-.132.141-.408-.017-.084-.094-.278-.419-.252l-.534.043a1.719,1.719,0,0,1-.539-.045.5.5,0,0,1-.33-.344,2.648,2.648,0,0,1-.124-.393c-.032-.139-.062-.277-.089-.413-.134-.772-.292-1.555-.468-2.328s-.332-1.546-.467-2.316l-.293-1.617a2.32,2.32,0,0,1-.055-.431c0-.111.023-.147.052-.171.058-.008.119-.017.186-.03s.161-.033.268-.061.219-.05.349-.076c.173-.034.358-.065.555-.089a5.367,5.367,0,0,1,.559-.046,1.458,1.458,0,0,1,.441.05.4.4,0,0,1,.229.147.848.848,0,0,1,.127.352c.021.148.037.286.049.416a1.214,1.214,0,0,0,.08.358.3.3,0,0,0,.369.172c.14-.026.309-.132.341-.474a4.416,4.416,0,0,0,0-.736c-.022-.271-.049-.55-.082-.833M-28-529.061a1.767,1.767,0,0,0,1.768,1.766,1.767,1.767,0,0,0,1.766-1.766,1.767,1.767,0,0,0-1.766-1.768A1.768,1.768,0,0,0-28-529.061m-111.5,0a1.766,1.766,0,0,0,1.767,1.766,1.767,1.767,0,0,0,1.767-1.766,1.768,1.768,0,0,0-1.767-1.768,1.768,1.768,0,0,0-1.767,1.768m62.271,57.1a2.438,2.438,0,0,0-.936-.547,2.177,2.177,0,0,0-.344-.085c.152-.159.3-.33.447-.512a4.745,4.745,0,0,0,.484-.74,1.71,1.71,0,0,0,.229-.8,1.817,1.817,0,0,0-.188-.857,1.716,1.716,0,0,0-.486-.577,2.006,2.006,0,0,0-.66-.32,2.286,2.286,0,0,0-1.48.069,3.409,3.409,0,0,0-.667.36,2.359,2.359,0,0,0-.508.473.9.9,0,0,0-.222.648.578.578,0,0,0,.188.338.433.433,0,0,0,.289.117.421.421,0,0,0,.3-.139,4.895,4.895,0,0,1,.535-.53.8.8,0,0,1,1.008.078.964.964,0,0,1,.222.718,1.165,1.165,0,0,1-.164.571,3.259,3.259,0,0,1-.479.636,4.915,4.915,0,0,1-.632.555,5.817,5.817,0,0,1-.6.4l-.261.127a.561.561,0,0,0-.369.509.521.521,0,0,0,.534.562.77.77,0,0,0,.424-.173,1.406,1.406,0,0,1,.229-.135.712.712,0,0,1,.334-.088l.064,0a4.976,4.976,0,0,1,.53.074,1.205,1.205,0,0,1,.472.2,1.354,1.354,0,0,1,.352.374,2.059,2.059,0,0,1,.231.513,1.982,1.982,0,0,1,.081.555,2.162,2.162,0,0,1-.214.971,2.687,2.687,0,0,1-.6.788,3.877,3.877,0,0,1-.915.607,6.788,6.788,0,0,1-1.1.424.421.421,0,0,0-.293.177.55.55,0,0,0-.1.268.478.478,0,0,0,.086.338.46.46,0,0,0,.387.188h.006a4.312,4.312,0,0,0,1.571-.348,5.578,5.578,0,0,0,1.457-.889,5.068,5.068,0,0,0,1.1-1.309A3.206,3.206,0,0,0-76.442-470a2.93,2.93,0,0,0-.2-1.08,2.489,2.489,0,0,0-.585-.882m-10.526-1.168c0-.159.006-.3.019-.44l.036-.34a3.146,3.146,0,0,1,.223-.226,3.4,3.4,0,0,1,.394-.313,2.543,2.543,0,0,1,.447-.244,1.26,1.26,0,0,1,1.112.074,1.387,1.387,0,0,1,.471.443,2.106,2.106,0,0,1,.285.665,3.232,3.232,0,0,1,.1.8,3.941,3.941,0,0,1-.087.8,2.566,2.566,0,0,1-.274.733,1.6,1.6,0,0,1-.463.513,1.1,1.1,0,0,1-.653.182,1.2,1.2,0,0,1-.755-.221,1.705,1.705,0,0,1-.5-.616,3.338,3.338,0,0,1-.276-.875,5.778,5.778,0,0,1-.081-.936m1.663,3.732a3,3,0,0,0,1.351-.3,3.211,3.211,0,0,0,1.03-.813,3.818,3.818,0,0,0,.657-1.144A3.871,3.871,0,0,0-82.815-473a3.557,3.557,0,0,0-.195-1.19,2.874,2.874,0,0,0-.571-.977,2.777,2.777,0,0,0-.916-.655,3.01,3.01,0,0,0-1.974-.128,3.505,3.505,0,0,0-.676.268c-.061.031-.118.062-.176.1a7.076,7.076,0,0,1,.518-1.128,6.446,6.446,0,0,1,1.394-1.688c.129-.112.26-.216.392-.315a4.354,4.354,0,0,1,.387-.258c.033-.017.093-.045.178-.083s.192-.09.282-.136a1.74,1.74,0,0,0,.284-.187.52.52,0,0,0,.224-.407.539.539,0,0,0-.183-.408,1.132,1.132,0,0,0-.2-.149l-.09-.054-.1.01a1.445,1.445,0,0,0-.443.118c-.133.054-.252.107-.357.155a8.756,8.756,0,0,0-1.809,1.128,8.411,8.411,0,0,0-1.475,1.539,7.269,7.269,0,0,0-1,1.872,6.357,6.357,0,0,0-.364,2.143,5.222,5.222,0,0,0,.123,1.132,4.262,4.262,0,0,0,.381,1.055,3.51,3.51,0,0,0,.671.893,3.334,3.334,0,0,0,1,.655,3.672,3.672,0,0,0,1.421.3m-6.208-3.522q.021-.761.022-1.534c0-.155,0-.29.011-.408a.24.24,0,0,1,.04-.129.262.262,0,0,1,.137-.077,1.5,1.5,0,0,1,.463-.052,1.555,1.555,0,0,0,.421-.054.534.534,0,0,0,.385-.55.544.544,0,0,0-.18-.384l-.1-.1h-1.312a4.155,4.155,0,0,0-.423.023,4.36,4.36,0,0,1-1-.019,5.365,5.365,0,0,0-.733-.045h-.149a1.862,1.862,0,0,0-.286.025.468.468,0,0,0-.411.484.555.555,0,0,0,.333.55,1.313,1.313,0,0,0,.421.091c.116.009.237.026.361.046a.385.385,0,0,1,.139.05.758.758,0,0,1,.06.23,3.065,3.065,0,0,1,.036.45v.255c0,.223,0,.447,0,.669s-.008.458-.008.691l-.014,1.246a4.124,4.124,0,0,1-.031.492c-.016.131-.047.166-.061.176a.423.423,0,0,1-.19.093c-.129.03-.253.057-.372.078a2.705,2.705,0,0,0-.364.094.5.5,0,0,0-.358.482.532.532,0,0,0,.346.522,1.1,1.1,0,0,0,.379.066h.189c.145,0,.271,0,.38-.015s.206-.022.3-.037c.078-.013.163-.022.254-.03a5.84,5.84,0,0,1,1.04.026,6.012,6.012,0,0,0,1.223.019.526.526,0,0,0,.495-.553.491.491,0,0,0-.393-.481,3.557,3.557,0,0,0-.377-.083l-.4-.073a.36.36,0,0,1-.172-.07.253.253,0,0,1-.071-.14,2.854,2.854,0,0,1-.046-.339v-.175c0-.512,0-1.017.018-1.517m19.124-.195c-.168.3-.361.6-.574.916s-.449.636-.7.954-.5.615-.727.873a.509.509,0,0,0-.166.371.6.6,0,0,0,.194.489.611.611,0,0,0,.333.124l.1.008a.488.488,0,0,0,.372-.207l.684-.007c.291,0,.552-.008.772-.008a11.851,11.851,0,0,1,1.379.111c.384.06.71.1.954.117l.057,0a.442.442,0,0,0,.436-.44c.009-.094.026-.234.052-.412a4.7,4.7,0,0,1,.158-.661,3.831,3.831,0,0,1,.428-.884l.1-.149-.072-.161a.679.679,0,0,0-.392-.357.536.536,0,0,0-.659.21l-.385.551c-.093.133-.191.273-.293.413s-.2.269-.275.372a.75.75,0,0,1-.306.1,4.9,4.9,0,0,1-.782.094c-.249.011-.486.01-.715,0,.082-.085.17-.178.263-.278.184-.2.378-.418.579-.663s.4-.492.575-.748.342-.505.478-.742a2.865,2.865,0,0,0,.293-.689,2.144,2.144,0,0,0-.212-1.911,1.954,1.954,0,0,0-1.686-.751c-.143,0-.284.006-.421.016a2.036,2.036,0,0,0-.484.1,2.1,2.1,0,0,0-.522.265,3.079,3.079,0,0,0-.551.495,1.633,1.633,0,0,0-.142.174l-.137.192a1.47,1.47,0,0,0-.156.258.714.714,0,0,0-.079.3.5.5,0,0,0,.213.418.472.472,0,0,0,.5.041.7.7,0,0,0,.3-.312,1.562,1.562,0,0,1,.168-.233.806.806,0,0,1,.267-.189,1.2,1.2,0,0,1,.508-.081c.508,0,.648.212.694.283a.973.973,0,0,1-.03.866,7.23,7.23,0,0,1-.386.775m-11.975-55h-3.808l-.633,31.729h5.075Zm-24.744,41.88h15.229v-7.615h-15.229Zm.633-41.88-.633,31.729h5.075l-.633-31.729Zm24.744,34.265H-89.59v7.615h5.075ZM-75-528.117h-3.807l-.632,31.729h5.072Zm-4.44,41.88h5.073v-7.615h-5.073ZM-95.3-528.117h-3.811l-.633,31.729h5.078Zm41.231-13.313-27.913-13.326-27.914,13.326v3.167l27.914-13.32,27.913,13.32Zm0,47.579H-69.291v7.615h15.225Zm-15.225-2.537h5.077l-.633-31.729h-3.806ZM-54.7-528.117h-3.808l-.634,31.729h5.075Zm.632-5.072h-55.827v2.54h55.827Zm-54.559-2.533h53.292l-26.646-12.689Z" transform="translate(0)" fill="#2C5696"/></g></svg>